<svg width="25" height="25" viewBox="0 0 25 25" fill="none" xmlns="http://www.w3.org/2000/svg">
<g clip-path="url(#clip0_28022_5899)">
<path d="M10.8663 16.0172C11.7538 16.9602 13.206 16.9602 14.0937 16.0172L14.4395 15.6497L13.965 15.4658C13.849 15.421 13.7723 15.3094 13.7723 15.1849V14.2285C13.4141 14.4757 12.9802 14.6209 12.5129 14.6209C12.0238 14.6209 11.5939 14.4866 11.2424 14.2621V15.174C11.2424 15.305 11.1619 15.4225 11.0398 15.4698L10.5352 15.6655L10.8663 16.0172Z" fill="#FFE0D1"/>
<path d="M12.3055 16.0208C12.1472 15.8527 12.2095 15.5779 12.4247 15.4945L12.4791 15.4734C12.6011 15.4261 12.6816 15.3086 12.6816 15.1775V14.6181C12.6259 14.6223 12.5698 14.6246 12.513 14.6246C12.024 14.6246 11.5942 14.4903 11.2427 14.2656V15.1775C11.2427 15.3086 11.1622 15.4261 11.04 15.4734L10.5353 15.6691L10.8664 16.0208C11.4947 16.6885 12.4058 16.8827 13.1995 16.6052C12.8722 16.4905 12.5647 16.2962 12.3055 16.0208Z" fill="#FFE0D1"/>
<path d="M12.4805 6.95117C10.8085 6.95117 9.45312 8.30653 9.45312 9.97852V11.1979C9.65549 11.0104 10.011 10.9085 10.292 10.9459V10.7952C10.292 10.6753 10.3944 10.5805 10.5132 10.5894C11.6836 10.6736 12.807 10.3016 13.7077 9.71339C13.7918 9.65846 13.9032 9.672 13.9714 9.74544C14.7414 10.573 14.669 10.5412 14.669 10.6491V10.9454C14.977 10.8992 15.3178 10.9944 15.5078 11.1708V9.97852C15.5078 8.30653 14.1525 6.95117 12.4805 6.95117Z" fill="#035997"/>
<path d="M10.9182 9.97852C10.9182 8.55926 11.8949 7.3685 13.2129 7.04101C12.9783 6.98264 12.733 6.95117 12.4805 6.95117C10.8085 6.95117 9.45312 8.30653 9.45312 9.97852V11.1979C9.65549 11.0104 10.011 10.9085 10.292 10.9459V10.7952C10.292 10.6753 10.3944 10.5805 10.513 10.5894C10.6488 10.5994 10.7839 10.6022 10.9182 10.6001V9.97852Z" fill="#035997"/>
<path d="M14.7006 10.8436V12.5021C14.7006 12.52 14.6996 12.5377 14.6992 12.5557C15.2861 12.6445 15.7458 12.2205 15.7458 11.6998C15.7456 11.178 15.2855 10.7559 14.7006 10.8436Z" fill="#FFE0D1"/>
<path d="M10.2581 12.5013V10.8437C9.74714 10.7754 9.21289 11.1675 9.21289 11.6989C9.21289 12.2191 9.67161 12.6438 10.2595 12.5549C10.2589 12.537 10.2581 12.5193 10.2581 12.5013Z" fill="#FFE0D1"/>
<path d="M15.5062 11.1032C15.3159 10.905 15.0279 10.7946 14.7006 10.8436V12.502C14.7006 12.52 14.6996 12.5377 14.6992 12.5556C15.0275 12.6054 15.3159 12.4946 15.5062 12.2961V11.1032Z" fill="#FFE0D1"/>
<path d="M10.2581 12.2955C10.108 12.1391 10.0187 11.9284 10.0187 11.6989C10.0187 11.4769 10.1122 11.2793 10.2581 11.1292V10.8437C9.74714 10.7754 9.21289 11.1675 9.21289 11.6989C9.21289 12.2191 9.67161 12.6438 10.2595 12.5549C10.2589 12.537 10.2581 12.5193 10.2581 12.5013V12.2955Z" fill="#FFE0D1"/>
<path d="M13.9698 9.64388C13.9016 9.57044 13.7902 9.55671 13.706 9.61183C12.8054 10.2001 11.6143 10.572 10.4439 10.4879C10.3251 10.4789 10.2227 10.5737 10.2227 10.6937V12.5022C10.2227 13.6646 11.1334 14.7262 12.5111 14.7262C13.7375 14.7262 14.7353 13.7285 14.7353 12.5022V10.5476C14.7353 10.4396 14.7398 10.4715 13.9698 9.64388Z" fill="#FFE0D1"/>
<path d="M11.6877 12.502V10.4141C11.2797 10.489 10.8605 10.5178 10.4437 10.4879C10.3251 10.4789 10.2227 10.5735 10.2227 10.6935V12.502C10.2227 13.6644 11.1334 14.726 12.5111 14.726C12.759 14.726 12.9975 14.6846 13.2204 14.6093C12.2755 14.3035 11.6877 13.4355 11.6877 12.502Z" fill="#FFE0D1"/>
<path d="M14.4051 15.6348L14.0551 16.0067C13.1907 16.9253 11.7762 16.9253 10.9118 16.0069L10.5763 15.6502L7.90237 16.6869C7.90237 16.6869 7.63057 16.7986 7.3418 17.0624C8.59588 18.5093 10.447 19.4243 12.512 19.4243C14.5769 19.4243 16.4282 18.5093 17.6823 17.0624C17.3933 16.7986 17.1217 16.6869 17.1217 16.6869L14.4051 15.6348Z" fill="#035997"/>
<path d="M8.75133 17.0872L9.61917 16.0254L7.90237 16.6909C7.90237 16.6909 7.63057 16.8026 7.3418 17.0664C7.63095 17.4 7.95215 17.705 8.30005 17.9772C8.54457 17.3556 8.75133 17.0872 8.75133 17.0872Z" fill="#035997"/>
<path d="M23.8707 9.99029H22.2538C22.0892 9.99029 21.9444 9.88196 21.8981 9.72403C21.7003 9.05321 21.4323 8.41292 21.1033 7.81058C21.0243 7.666 21.0499 7.48671 21.1664 7.37036L22.311 6.22557C22.6126 5.92402 22.6126 5.43555 22.311 5.13399L19.866 2.68877C19.5646 2.38741 19.0758 2.38741 18.7744 2.68877L17.6296 3.83356C17.5131 3.9501 17.334 3.97566 17.1892 3.89651C16.5869 3.56768 15.9466 3.29951 15.276 3.1021C15.118 3.05556 15.0095 2.91079 15.0095 2.74619V1.12933C15.0095 0.703033 14.6641 0.357422 14.2378 0.357422H10.7798C10.3535 0.357422 10.0079 0.703033 10.0079 1.12933V2.74619C10.0079 2.91079 9.89954 3.05556 9.74161 3.10191C9.07079 3.29951 8.4305 3.56749 7.82816 3.89651C7.68358 3.97566 7.50429 3.9501 7.38775 3.83356L6.24315 2.68877C5.94179 2.38741 5.45293 2.38741 5.15157 2.68877L2.70635 5.13399C2.4048 5.43555 2.4048 5.92421 2.70635 6.22557L3.85114 7.37036C3.96768 7.4869 3.99324 7.666 3.91409 7.81058C3.58526 8.41311 3.31709 9.05321 3.11948 9.72403C3.07294 9.88196 2.92837 9.99029 2.76376 9.99029H1.1469C0.720612 9.99029 0.375 10.3359 0.375 10.7622V14.2202C0.375 14.6465 0.720612 14.9921 1.1469 14.9921H2.76376C2.92818 14.9921 3.07294 15.1005 3.11948 15.2584C3.31709 15.929 3.58507 16.5693 3.91409 17.1718C3.99305 17.3164 3.96749 17.4955 3.85114 17.6121L2.70635 18.7568C2.4048 19.0582 2.4048 19.5471 2.70635 19.8484L5.15138 22.2936C5.45293 22.595 5.9416 22.595 6.24296 22.2936L7.38775 21.1489C7.50429 21.0323 7.68339 21.0068 7.82796 21.0857C8.4305 21.4149 9.07079 21.6829 9.74142 21.8805C9.89934 21.9269 10.0079 22.0716 10.0079 22.2362V23.8531C10.0079 24.2794 10.3535 24.625 10.7798 24.625H14.2376C14.6639 24.625 15.0095 24.2794 15.0095 23.8531V22.2362C15.0095 22.0716 15.118 21.9269 15.2758 21.8805C15.9466 21.6829 16.5867 21.4149 17.1892 21.0857C17.3338 21.0068 17.5129 21.0323 17.6294 21.1489L18.7742 22.2936C19.0758 22.595 19.5645 22.595 19.8658 22.2936L22.311 19.8484C22.6126 19.5469 22.6126 19.0582 22.311 18.7568L21.1662 17.6121C21.0497 17.4955 21.0243 17.3162 21.1033 17.1717C21.4323 16.5693 21.7003 15.929 21.8979 15.2582C21.9444 15.1005 22.089 14.9919 22.2536 14.9919H23.8707C24.2968 14.9919 24.6424 14.6463 24.6424 14.22V10.762C24.6426 10.3359 24.297 9.99029 23.8707 9.99029ZM12.5088 19.3308C8.73147 19.3308 5.66923 16.2687 5.66923 12.4912C5.66923 8.7139 8.73147 5.65165 12.5088 5.65165C16.2861 5.65165 19.3483 8.7139 19.3483 12.4912C19.3483 16.2687 16.2861 19.3308 12.5088 19.3308Z" fill="#E77237"/>
<path d="M3.84947 7.36659C3.96582 7.48313 3.99138 7.66223 3.91241 7.80681C3.58339 8.40934 3.31541 9.04945 3.11781 9.72026C3.07127 9.87819 2.9265 9.98653 2.76209 9.98653H4.22693C4.39154 9.98653 4.53612 9.87819 4.58265 9.72026C4.78026 9.04945 5.04824 8.40934 5.37726 7.80681C5.45622 7.66223 5.43085 7.48313 5.31431 7.36659L4.16952 6.2218C3.86797 5.92025 3.86797 5.43178 4.16952 5.13023L6.42801 2.87173L6.24129 2.68501C5.93992 2.38364 5.45126 2.38364 5.14971 2.68501L2.70468 5.13023C2.40313 5.43178 2.40313 5.92044 2.70468 6.2218L3.84947 7.36659Z" fill="#E77237"/>
<path d="M1.83984 14.218V10.76C1.83984 10.3337 2.18546 9.98828 2.61175 9.98828H1.14671C0.720421 9.98828 0.375 10.3337 0.375 10.76V14.218C0.375 14.6443 0.720612 14.9899 1.14671 14.9899H2.61175C2.18546 14.9899 1.83984 14.6443 1.83984 14.218Z" fill="#E77237"/>
<path d="M4.16952 19.8467C3.86797 19.5452 3.86797 19.0565 4.16952 18.755L5.31431 17.6102C5.43085 17.4936 5.45641 17.3145 5.37726 17.17C5.04824 16.5676 4.78026 15.9271 4.58265 15.2565C4.53612 15.0986 4.39154 14.9902 4.22693 14.9902H2.76209C2.9265 14.9902 3.07127 15.0986 3.11781 15.2565C3.31541 15.9271 3.58339 16.5676 3.91241 17.17C3.99138 17.3145 3.96582 17.4936 3.84947 17.6102L2.70468 18.755C2.40313 19.0565 2.40313 19.5452 2.70468 19.8467L5.14971 22.2918C5.45126 22.5933 5.93992 22.5933 6.24129 22.2918L6.42801 22.105L4.16952 19.8467Z" fill="#E77237"/>
<path d="M10.7822 0.355469C10.3559 0.355469 10.0103 0.70108 10.0103 1.12737V2.74423C10.0103 2.88671 9.92886 3.01374 9.80469 3.07573C9.98436 3.00649 10.5404 2.80946 11.1723 2.7572C11.3437 2.7429 11.4751 2.5987 11.4751 2.42647V1.12737C11.4751 0.70108 11.8208 0.355469 12.247 0.355469H10.7822Z" fill="#E77237"/>
<path d="M11.4772 23.85V22.6654C11.4772 22.4321 11.3004 22.2356 11.0683 22.2141C10.4589 22.1572 10.0053 21.989 9.82812 21.9141C9.9399 21.9795 10.0124 22.0993 10.0124 22.2332V23.85C10.0124 24.2763 10.358 24.6219 10.7843 24.6219H12.2493C11.8228 24.6219 11.4772 24.2763 11.4772 23.85Z" fill="#E77237"/>
<path d="M5.29102 12.501C5.29102 14.2844 5.94886 15.9726 7.09766 17.2724C9.96974 20.5199 15.0303 20.5124 17.8959 17.2724C19.0253 15.997 19.7026 14.3107 19.7026 12.501C19.7026 8.52762 16.4702 5.29504 12.4968 5.29504C8.52359 5.29504 5.29102 8.52762 5.29102 12.501ZM9.52914 11.7024C9.52914 11.5071 9.66685 11.3446 9.84309 11.2622V12.1649C9.64931 12.0871 9.52914 11.9036 9.52914 11.7024ZM9.80342 10.5052V9.97911C9.80342 8.50988 10.9989 7.31435 12.4682 7.31435C13.9376 7.31435 15.1329 8.50988 15.1329 9.97911V10.492C15.1192 10.4893 15.1057 10.4868 15.0917 10.4847C15.0826 10.3249 14.9931 10.2202 14.8569 10.0684C14.7408 9.93925 14.5832 9.77522 14.229 9.39451C14.0385 9.18985 13.7305 9.15247 13.4966 9.30524C12.5878 9.899 11.4802 10.1973 10.4582 10.1239C10.2053 10.1048 9.97146 10.257 9.88124 10.4897C9.87762 10.4903 9.80533 10.5048 9.80342 10.5052ZM15.0935 11.2402C15.2777 11.3137 15.4074 11.4935 15.4074 11.7024C15.4074 11.9036 15.287 12.0869 15.0935 12.1649V11.2402ZM10.5755 12.5058V10.8637C11.6635 10.9044 12.8159 10.5906 13.7835 9.99075C14.1022 10.3324 14.2807 10.5195 14.361 10.6116V12.5067C14.3574 13.5462 13.5132 14.3662 12.5006 14.3662C11.3131 14.3662 10.5755 13.4387 10.5755 12.5058ZM12.5006 15.0986C12.8229 15.0986 13.1573 15.0315 13.3953 14.9396V15.1953C13.3953 15.4444 13.5376 15.6737 13.7554 15.7876C13.0448 16.5213 11.9162 16.528 11.1981 15.8047C11.4369 15.6939 11.5948 15.45 11.5948 15.1845V14.9537C11.8925 15.0544 12.2092 15.0986 12.5006 15.0986ZM10.4611 16.0924L10.628 16.2697C11.6392 17.344 13.2975 17.3438 14.3084 16.2697L14.49 16.0769C14.8009 16.1973 16.6674 16.9201 16.9735 17.0386C16.9737 17.0388 16.9743 17.039 16.9745 17.039C16.9846 17.0435 17.0166 17.0584 17.0636 17.0846C15.8568 18.2868 14.2218 18.9744 12.4968 18.9744C10.8258 18.9744 9.17648 18.3264 7.93002 17.0844C7.97485 17.0596 8.00498 17.0455 8.01566 17.0405C8.01681 17.0401 8.01871 17.0392 8.01948 17.039C9.5301 16.4532 8.96915 16.6707 10.4611 16.0924ZM17.5606 16.5288C17.3937 16.4214 17.2711 16.3691 17.2516 16.3609C17.2491 16.36 17.2467 16.359 17.2444 16.358C16.067 15.902 14.6328 15.3466 14.1278 15.1511V14.5224C14.613 14.1303 14.9542 13.567 15.0591 12.925C15.6939 12.8407 16.1398 12.311 16.1398 11.7024C16.1398 11.4176 16.0416 11.1453 15.8654 10.9282V9.97911C15.8654 8.1059 14.3414 6.58193 12.4684 6.58193C10.5952 6.58193 9.07119 8.1059 9.07119 9.97911V10.953C8.89304 11.1674 8.79672 11.4272 8.79672 11.7026C8.79672 12.3137 9.24571 12.8422 9.87933 12.9254C9.98557 13.5527 10.3262 14.1539 10.8624 14.5644V15.1513C10.8429 15.1587 10.4264 15.3203 10.4264 15.3203L7.74921 16.358C7.74692 16.359 7.74444 16.36 7.74215 16.3609C7.7225 16.3689 7.59986 16.4214 7.43297 16.5288C4.06402 12.3019 7.09212 6.02766 12.4968 6.02766C17.9018 6.02766 20.9294 12.3023 17.5606 16.5288Z" fill="black"/>
<path d="M23.8614 9.63287H22.2446C22.2425 9.63287 22.2408 9.63154 22.2402 9.62925C22.038 8.94375 21.7607 8.2756 21.4156 7.64389C21.4145 7.64179 21.4147 7.6395 21.4162 7.63798L22.5608 6.49319C23.0058 6.04858 23.0058 5.32856 22.561 4.88377L20.1158 2.43854C19.671 1.99375 18.9512 1.99375 18.5062 2.43854L17.3614 3.58334C17.3601 3.58486 17.3578 3.58505 17.3557 3.58391C16.7236 3.23868 16.0554 2.96135 15.3703 2.75955C15.368 2.75879 15.3667 2.75707 15.3667 2.75497V1.13811C15.3667 0.510597 14.8561 0 14.2286 0H13.3254C13.1233 0 12.9592 0.164032 12.9592 0.366211C12.9592 0.568581 13.1233 0.732422 13.3254 0.732422H14.2286C14.4523 0.732422 14.6343 0.914383 14.6343 1.13811V2.75497C14.6343 3.07941 14.8517 3.37028 15.1634 3.46203C15.7987 3.64914 16.4182 3.90644 17.0045 4.22668C17.2901 4.38251 17.6498 4.33102 17.8794 4.10118L19.0242 2.95639C19.1827 2.79789 19.4394 2.79789 19.5979 2.95639L22.043 5.40161C22.2013 5.55992 22.2019 5.81627 22.043 5.97534L20.8984 7.12013C20.6685 7.34978 20.6169 7.7095 20.7729 7.99484C21.0929 8.58097 21.3502 9.20067 21.5375 9.83639C21.6295 10.1479 21.9201 10.3653 22.2446 10.3653H23.8614C24.0852 10.3653 24.2671 10.5474 24.2671 10.771V11.6455C24.2671 11.8477 24.431 12.0117 24.6333 12.0117C24.8357 12.0117 24.9996 11.8477 24.9996 11.6455V10.771C24.9996 10.1435 24.489 9.63287 23.8614 9.63287Z" fill="black"/>
<path d="M24.6337 12.9885C24.4313 12.9885 24.2675 13.1526 24.2675 13.3547V14.2293C24.2675 14.4528 24.0855 14.6349 23.8618 14.6349H22.2449C21.9205 14.6349 21.6296 14.8524 21.5378 15.1639C21.3505 15.7996 21.0932 16.4191 20.7732 17.0052C20.6174 17.2906 20.6689 17.6503 20.8985 17.8801L22.0433 19.0249C22.202 19.1834 22.202 19.4399 22.0433 19.5986L19.5983 22.0437C19.4401 22.2018 19.1827 22.202 19.0245 22.0437L17.8797 20.8989C17.6501 20.6692 17.2904 20.6177 17.0048 20.7734C16.4183 21.0938 15.799 21.3509 15.1635 21.5382C14.852 21.63 14.6346 21.9206 14.6346 22.2453V23.8621C14.6346 24.0857 14.4524 24.2678 14.2289 24.2678H10.7709C10.5473 24.2678 10.3652 24.0857 10.3652 23.8621V22.2453C10.3652 21.9206 10.1477 21.63 9.83607 21.5382C9.20074 21.3509 8.58123 21.0938 7.99491 20.7734C7.70938 20.6175 7.34966 20.669 7.12001 20.8989L5.97522 22.0437C5.8171 22.2018 5.5598 22.202 5.40168 22.0437L2.95646 19.5984C2.79796 19.4399 2.79777 19.1834 2.95646 19.0249L4.10125 17.8801C4.33089 17.6503 4.38258 17.2906 4.22656 17.0052C3.90632 16.4187 3.64902 15.7992 3.46191 15.1639C3.37016 14.8524 3.07948 14.6348 2.75485 14.6348H1.13799C0.914261 14.6348 0.7323 14.4528 0.7323 14.2291V10.7712C0.7323 10.5475 0.914261 10.3655 1.13799 10.3655H2.75485C3.07929 10.3655 3.37016 10.1479 3.46191 9.83644C3.64902 9.2011 3.90632 8.5816 4.22656 7.99509C4.38239 7.70975 4.33089 7.35002 4.10106 7.12019L2.95646 5.9754C2.79777 5.81689 2.79777 5.56036 2.95646 5.40186L5.40149 2.95663C5.5598 2.79832 5.81634 2.79775 5.97522 2.95663L7.11982 4.10143C7.34966 4.33126 7.70938 4.38295 7.99472 4.22693C8.58104 3.90668 9.20055 3.64938 9.83607 3.46208C10.1475 3.37053 10.3652 3.07966 10.3652 2.75522V1.13836C10.3652 0.914627 10.5471 0.732666 10.7709 0.732666H11.6168C11.819 0.732666 11.983 0.568825 11.983 0.366455C11.983 0.164276 11.819 0.000244141 11.6168 0.000244141H10.7709C10.1433 0.000244141 9.63275 0.510841 9.63275 1.13836V2.75522C9.63275 2.75732 9.63142 2.75903 9.62913 2.75961C8.94382 2.96159 8.27567 3.23892 7.64358 3.58415C7.64148 3.5853 7.63938 3.58511 7.63786 3.58358L6.49326 2.43879C6.04846 1.994 5.32863 1.994 4.88364 2.43879L2.43842 4.88401C1.99363 5.32861 1.99344 6.04864 2.43842 6.49343L3.58321 7.63822C3.58474 7.63975 3.58493 7.64204 3.58379 7.64413C3.23856 8.27642 2.96104 8.94437 2.75924 9.62949C2.75867 9.63178 2.75676 9.63312 2.75485 9.63312H1.13799C0.510475 9.63312 -0.00012207 10.1437 -0.00012207 10.7712V14.2293C-0.00012207 14.8568 0.510475 15.3674 1.13799 15.3674H2.75485C2.75695 15.3674 2.75867 15.3687 2.75924 15.371C2.96104 16.0561 3.23837 16.7241 3.58379 17.3564C3.58493 17.3585 3.58474 17.3607 3.58321 17.3623L2.43842 18.5069C1.99363 18.9517 1.99363 19.6717 2.43842 20.1165L4.88364 22.5617C5.32748 23.0053 6.04942 23.0053 6.49306 22.5617L7.63786 21.4167C7.63938 21.4154 7.64148 21.4152 7.64358 21.4163C8.27567 21.7616 8.94382 22.0389 9.62913 22.2409C9.63123 22.2415 9.63275 22.2432 9.63275 22.2453V23.8621C9.63275 24.4896 10.1433 25.0002 10.7709 25.0002H14.2287C14.8562 25.0002 15.3668 24.4896 15.3668 23.8621V22.2453C15.3668 22.2432 15.3683 22.2415 15.3704 22.2409C16.0557 22.0389 16.7237 21.7616 17.3558 21.4163C17.3579 21.4152 17.3602 21.4154 17.3617 21.4169L18.5065 22.5617C18.9501 23.0053 19.6723 23.0053 20.1161 22.5617L22.5611 20.1165C23.0059 19.6717 23.0061 18.9519 22.5611 18.5071L21.4164 17.3623C21.4148 17.3607 21.4146 17.3585 21.4158 17.3564C21.7608 16.7244 22.0383 16.0565 22.2403 15.371C22.2409 15.3687 22.2428 15.3674 22.2447 15.3674H23.8618C24.4893 15.3674 24.9997 14.8568 24.9997 14.2293V13.3547C24.9999 13.1526 24.8358 12.9885 24.6337 12.9885Z" fill="black"/>
</g>
<defs>
<clipPath id="clip0_28022_5899">
<rect width="25" height="25" fill="white"/>
</clipPath>
</defs>
</svg>
