<svg width="26" height="26" viewBox="0 0 26 26" fill="none" xmlns="http://www.w3.org/2000/svg">
<path fill-rule="evenodd" clip-rule="evenodd" d="M7.08921 10.8486H19.8916V9.03199C19.8916 8.87018 19.9786 8.73167 20.1243 8.66139C20.2701 8.59112 20.4326 8.60928 20.5593 8.7101L25.0387 12.2748C25.1402 12.3555 25.194 12.4671 25.194 12.5968C25.194 12.7264 25.1402 12.838 25.0387 12.9187L20.5593 16.4834C20.4327 16.5842 20.2701 16.6024 20.1243 16.5321C19.9786 16.4618 19.8916 16.3233 19.8916 16.1615V14.3448H7.08921C6.75656 14.3448 6.48438 14.0726 6.48438 13.74V11.4535C6.48438 11.1209 6.75656 10.8487 7.08921 10.8487V10.8486Z" fill="#035997"/>
<path fill-rule="evenodd" clip-rule="evenodd" d="M16.3312 0H1.59055C0.715788 0 0 0.715736 0 1.5905V23.6022C0 24.4769 0.715736 25.1927 1.59055 25.1927H16.3312C17.206 25.1927 17.9217 24.4769 17.9217 23.6022V19.2319C17.9217 18.8849 17.6387 18.6019 17.2918 18.6019H15.0555C14.7086 18.6019 14.4256 18.8849 14.4256 19.2319V21.6966H3.49617V3.49612H14.4257V5.96081C14.4257 6.30774 14.7087 6.59079 15.0556 6.59079H17.2919C17.6388 6.59079 17.9218 6.30779 17.9218 5.96081V1.5905C17.9218 0.715736 17.206 0 16.3312 0Z" fill="#E77237"/>
</svg>
