<svg width="27" height="27" viewBox="0 0 27 27" fill="none" xmlns="http://www.w3.org/2000/svg">
<g clip-path="url(#clip0_28022_5970)">
<path d="M15.5711 24.2342H11.2852V1.89791C11.2852 1.06765 11.9582 0.394531 12.7885 0.394531H14.0677C14.898 0.394531 15.5711 1.0676 15.5711 1.89791V24.2342Z" fill="#035997"/>
<path d="M11.2852 14.7285H15.5711V16.5981H11.2852V14.7285Z" fill="#035997"/>
<path d="M14.1545 0.397155C13.3646 0.441768 12.7374 1.09678 12.7374 1.8977V24.2342H11.2852V1.8977C11.2852 1.06739 11.958 0.394531 12.7883 0.394531H14.0679C14.0973 0.394531 14.1262 0.395581 14.1545 0.397155Z" fill="#035997"/>
<path d="M21.882 15.3349H4.9771C3.39331 15.3349 2.10938 14.051 2.10938 12.4672V5.63902C2.10938 4.05524 3.39331 2.7713 4.9771 2.7713H21.882C23.4658 2.7713 24.7498 4.05524 24.7498 5.63902V12.4672C24.7498 14.051 23.4658 15.3349 21.882 15.3349Z" fill="#FFE0D1"/>
<path d="M6.90754 15.3351H4.97715C3.39368 15.3351 2.10938 14.0513 2.10938 12.4674V5.63907C2.10938 4.05561 3.39368 2.7713 4.97715 2.7713H6.90754C5.32355 2.7713 4.03977 4.05561 4.03977 5.63907V12.4674C4.03977 14.0513 5.32355 15.3351 6.90754 15.3351Z" fill="#E77237"/>
<path d="M18.4924 22.151C17.5478 22.1251 16.7741 22.883 16.7741 23.8217C16.7741 22.8987 16.0258 22.1504 15.1027 22.1504C14.1797 22.1504 13.4314 22.8987 13.4314 23.8217C13.4314 22.8987 12.6831 22.1504 11.7601 22.1504C10.837 22.1504 10.0887 22.8987 10.0887 23.8217C10.0887 22.883 9.31497 22.1251 8.37045 22.151C7.4601 22.176 6.74609 22.9458 6.74609 23.8565V25.3074C6.74609 25.9541 7.27037 26.4784 7.91708 26.4784H18.9458C19.5926 26.4784 20.1168 25.9541 20.1168 25.3074V23.8565C20.1167 22.9458 19.4027 22.176 18.4924 22.151Z" fill="#E77237"/>
<path d="M12.3982 26.4784H7.91703C7.27042 26.4784 6.74609 25.9541 6.74609 25.3075V23.8568C6.74609 22.9462 7.46041 22.1762 8.3705 22.151C9.31523 22.1253 10.0889 22.8832 10.0889 23.8216C10.0889 22.8989 10.8373 22.1505 11.76 22.1505C11.961 22.1505 12.1536 22.1857 12.3321 22.2507C11.6839 22.4906 11.2273 23.1288 11.2273 23.8568V25.3075C11.2273 25.9541 11.7516 26.4784 12.3982 26.4784Z" fill="#E77237"/>
<path d="M21.8856 2.37546H21.693C21.4755 2.37546 21.2993 2.55171 21.2993 2.7691C21.2993 2.98649 21.4755 3.16274 21.693 3.16274H21.8856C23.2498 3.16274 24.3598 4.27263 24.3598 5.63687V12.4652C24.3598 13.8294 23.2499 14.9393 21.8856 14.9393H4.98021C3.61597 14.9393 2.50602 13.8294 2.50602 12.4652V5.63687C2.50602 4.27263 3.61592 3.16274 4.98021 3.16274H20.1184C20.3359 3.16274 20.5121 2.98649 20.5121 2.7691C20.5121 2.55171 20.3359 2.37546 20.1184 2.37546H15.9695V1.8968C15.9695 0.850885 15.1184 0 14.0722 0H12.7932C11.7472 0 10.8964 0.850885 10.8964 1.8968V2.37546H4.98021C3.18182 2.37546 1.71875 3.83853 1.71875 5.63687V12.4652C1.71875 14.2635 3.18182 15.7266 4.98021 15.7266H10.8963V18.3036C10.8963 18.521 11.0725 18.6972 11.2899 18.6972C11.5074 18.6972 11.6836 18.521 11.6836 18.3036V15.7266H15.1823V21.7594C15.1563 21.7584 15.1304 21.757 15.1042 21.757C14.4178 21.757 13.8085 22.0937 13.4329 22.6105C13.0572 22.0937 12.4479 21.757 11.7615 21.757C11.7353 21.757 11.7095 21.7584 11.6836 21.7594V19.8781C11.6836 19.6607 11.5074 19.4845 11.2899 19.4845C11.0725 19.4845 10.8963 19.6607 10.8963 19.8781V21.9478C10.5748 22.0968 10.2976 22.3256 10.091 22.6093C10.0221 22.5147 9.94454 22.4253 9.85873 22.3418C9.45581 21.9497 8.92382 21.7424 8.36113 21.7578C7.25433 21.7881 6.3539 22.7298 6.3539 23.8568V25.3077C6.3539 26.1704 7.05578 26.8723 7.91852 26.8723H18.9473C19.8101 26.8723 20.512 26.1704 20.512 25.3077V23.8568C20.512 22.7298 19.6115 21.7882 18.5048 21.7578C17.9422 21.7422 17.4101 21.9497 17.0071 22.3418C16.9213 22.4253 16.8438 22.5147 16.7748 22.6093C16.5682 22.3256 16.291 22.0969 15.9696 21.9478V15.7266H21.8856C23.684 15.7266 25.147 14.2635 25.147 12.4652V5.63687C25.147 3.83853 23.6839 2.37546 21.8856 2.37546ZM11.6836 1.8968C11.6836 1.28499 12.1813 0.787273 12.7932 0.787273H14.0722C14.6843 0.787273 15.1823 1.28499 15.1823 1.8968V2.37546H11.6836V1.8968ZM16.3819 23.822C16.3819 24.0394 16.5581 24.2156 16.7756 24.2156C16.993 24.2156 17.1692 24.0394 17.1692 23.822C17.1692 23.4741 17.3065 23.1488 17.556 22.9061C17.8053 22.6635 18.1356 22.5351 18.483 22.5448C19.1677 22.5636 19.7246 23.1521 19.7246 23.8568V25.3077C19.7246 25.7363 19.3759 26.085 18.9472 26.085H7.91852C7.48988 26.085 7.14117 25.7363 7.14117 25.3077V23.8568C7.14117 23.1521 7.69809 22.5636 8.3827 22.5448C8.39477 22.5445 8.4069 22.5443 8.41897 22.5443C8.75398 22.5443 9.0691 22.672 9.30974 22.9061C9.5592 23.1488 9.69655 23.4741 9.69655 23.822C9.69655 24.0394 9.87275 24.2157 10.0902 24.2157C10.3076 24.2157 10.4838 24.0394 10.4838 23.822C10.4838 23.1175 11.057 22.5443 11.7615 22.5443C12.4661 22.5443 13.0393 23.1175 13.0393 23.822C13.0393 24.0394 13.2155 24.2157 13.4329 24.2157C13.6503 24.2157 13.8265 24.0394 13.8265 23.822C13.8265 23.1175 14.3997 22.5443 15.1042 22.5443C15.8088 22.5443 16.3819 23.1175 16.3819 23.822Z" fill="black"/>
<path d="M12.3771 6.51515C12.2991 6.32552 12.1162 6.20312 11.9112 6.20312C11.911 6.20312 11.9108 6.20312 11.9106 6.20312C11.7054 6.20333 11.5226 6.32625 11.4449 6.5162C11.4437 6.51919 11.4425 6.52213 11.4414 6.52512L9.61574 11.3185C9.53832 11.5217 9.64035 11.7491 9.84347 11.8265C9.88961 11.844 9.93695 11.8523 9.98355 11.8523C10.1421 11.8523 10.2916 11.7558 10.3515 11.5987L10.7096 10.6584H13.0995L13.4539 11.5976C13.5306 11.801 13.7579 11.9037 13.9612 11.8269C14.1645 11.7501 14.2672 11.523 14.1904 11.3196L12.3814 6.52601C12.3801 6.52234 12.3786 6.51872 12.3771 6.51515ZM11.0094 9.87113L11.91 7.50659L12.8024 9.87113H11.0094Z" fill="#035997"/>
<path d="M9.09584 7.05485C9.31329 7.05485 9.48948 6.87861 9.48948 6.66121C9.48948 6.44382 9.31329 6.26758 9.09584 6.26758H7.13973C6.92229 6.26758 6.74609 6.44382 6.74609 6.66121V11.4875C6.74609 11.7049 6.92229 11.8811 7.13973 11.8811C7.35717 11.8811 7.53337 11.7049 7.53337 11.4875V9.42229H8.94043C9.15788 9.42229 9.33407 9.24604 9.33407 9.02865C9.33407 8.81126 9.15788 8.63501 8.94043 8.63501H7.53337V7.05485H9.09584Z" fill="#035997"/>
<path d="M17.2777 6.25C15.7202 6.25 14.4531 7.51709 14.4531 9.07458C14.4531 10.632 15.7202 11.8991 17.2777 11.8991C17.9245 11.8991 18.5209 11.68 18.9976 11.3128L19.449 11.7642C19.5259 11.8411 19.6266 11.8795 19.7274 11.8795C19.8281 11.8795 19.9289 11.8411 20.0058 11.7642C20.1595 11.6105 20.1595 11.3612 20.0058 11.2076L19.5492 10.751C19.8965 10.2818 20.1022 9.70188 20.1022 9.07463C20.1022 7.51709 18.8351 6.25 17.2777 6.25ZM17.2777 11.1118C16.1543 11.1118 15.2404 10.1979 15.2404 9.07458C15.2404 7.95119 16.1543 7.03727 17.2777 7.03727C18.401 7.03727 19.3149 7.95119 19.3149 9.07458C19.3149 9.48433 19.1929 9.86589 18.9839 10.1857L18.4503 9.65217C18.2966 9.49845 18.0474 9.49845 17.8936 9.65217C17.7399 9.8059 17.7399 10.0552 17.8936 10.2088L18.4348 10.75C18.1059 10.9779 17.7072 11.1118 17.2777 11.1118Z" fill="#035997"/>
</g>
<defs>
<clipPath id="clip0_28022_5970">
<rect width="26.8722" height="26.8722" fill="white"/>
</clipPath>
</defs>
</svg>
