<svg width="26" height="26" viewBox="0 0 26 26" fill="none" xmlns="http://www.w3.org/2000/svg">
<path fill-rule="evenodd" clip-rule="evenodd" d="M3.80164 9.45119C4.20875 4.72823 8.17151 1.02176 13 1.02176C17.8285 1.02176 21.7913 4.72823 22.1984 9.45119H20.5686C20.167 5.62538 16.9316 2.64407 13 2.64407C9.06836 2.64407 5.83304 5.62538 5.43136 9.45119H3.80164Z" fill="#E77237"/>
<path fill-rule="evenodd" clip-rule="evenodd" d="M3.33521 17.999C3.60653 18.0198 3.93478 18.0316 4.26455 18.0123C4.4402 18.9032 4.6738 20.5913 5.6294 21.5469C6.49415 22.4117 7.66705 22.8975 8.89001 22.8975H11.0308C11.0034 23.0471 10.9894 23.1997 10.9894 23.3538C10.9894 23.5096 11.0035 23.6621 11.0303 23.81H8.89001C7.42502 23.81 6.02006 23.2281 4.98412 22.1922C3.8028 21.0109 3.51878 19.1384 3.33521 17.999Z" fill="#E77237"/>
<path fill-rule="evenodd" clip-rule="evenodd" d="M5.84792 10.1925C5.84792 9.60943 5.42973 9.13681 4.9138 9.13681H2.97086C2.18293 9.13681 1.42726 9.49055 0.870137 10.1201C0.313016 10.7498 0 11.6037 0 12.4942V15.0839C0 15.9743 0.313016 16.8282 0.870137 17.4578C1.42726 18.0875 2.18293 18.4412 2.97086 18.4412H4.9138C5.42973 18.4412 5.84792 17.9686 5.84792 17.3856V10.1925Z" fill="#FFE0D1"/>
<path fill-rule="evenodd" clip-rule="evenodd" d="M3.35085 9.13681V18.4412H2.97086C2.18293 18.4412 1.42726 18.0875 0.870137 17.4578C0.313016 16.8282 0 15.9743 0 15.0839V12.4942C0 11.6037 0.313016 10.7498 0.870137 10.1201C1.42726 9.49055 2.18293 9.13681 2.97086 9.13681H3.35085Z" fill="#035997"/>
<path fill-rule="evenodd" clip-rule="evenodd" d="M26 12.4942C26 11.6037 25.687 10.7498 25.1299 10.1201C24.5728 9.49055 23.8171 9.13681 23.0292 9.13681H21.0862C20.5703 9.13681 20.1521 9.60943 20.1521 10.1925V17.3856C20.1521 17.9686 20.5703 18.4412 21.0862 18.4412H23.0292C23.8171 18.4412 24.5728 18.0875 25.1299 17.4578C25.687 16.8282 26 15.9743 26 15.0839V12.4942Z" fill="#FFE0D1"/>
<path fill-rule="evenodd" clip-rule="evenodd" d="M22.6492 9.13681H23.0292C23.8171 9.13681 24.5728 9.49055 25.1299 10.1201C25.687 10.7498 26 11.6037 26 12.4942V15.0839C26 15.9743 25.687 16.8282 25.1299 17.4578C24.5728 18.0875 23.8171 18.4412 23.0292 18.4412H22.6492V9.13681Z" fill="#035997"/>
<path fill-rule="evenodd" clip-rule="evenodd" d="M15.619 23.3538C15.619 22.4566 14.8917 21.7293 13.9945 21.7293H12.0054C11.5746 21.7293 11.1614 21.9005 10.8568 22.2052C10.5521 22.5098 10.381 22.923 10.381 23.3538C10.381 24.2509 11.1083 24.9782 12.0054 24.9782H13.9945C14.8917 24.9782 15.619 24.2509 15.619 23.3538Z" fill="#035997"/>
</svg>