<svg width="19" height="19" viewBox="0 0 19 19" fill="none" xmlns="http://www.w3.org/2000/svg">
<g clip-path="url(#clip0_30609_17446)">
<path d="M14.25 16.7833V2.85001C14.25 2.15334 13.68 1.58334 12.9833 1.58334H1.58332C0.88665 1.58334 0.31665 2.15334 0.31665 2.85001V16.7833C0.31665 17.48 0.88665 18.05 1.58332 18.05H12.9833C13.6828 18.05 14.25 17.4829 14.25 16.7833Z" fill="#035997"/>
<path d="M12.6666 2.85001H1.89992C1.72503 2.85001 1.58325 2.99178 1.58325 3.16667V16.4667C1.58325 16.6416 1.72503 16.7833 1.89992 16.7833H12.6666C12.8415 16.7833 12.9833 16.6416 12.9833 16.4667V3.16667C12.9833 2.99178 12.8415 2.85001 12.6666 2.85001Z" fill="#F8F8FF"/>
<path d="M9.81667 1.58335V2.53335C9.81667 2.88168 9.53167 3.16668 9.18333 3.16668H5.38333C5.035 3.16668 4.75 2.88168 4.75 2.53335V1.58335C4.75 1.40918 4.8925 1.26668 5.06667 1.26668H6.05783C6.19717 0.718848 6.69433 0.316681 7.28333 0.316681C7.87233 0.316681 8.3695 0.718848 8.50883 1.26668H9.5C9.67417 1.26668 9.81667 1.40918 9.81667 1.58335Z" fill="#E77237"/>
<path d="M18.6834 9.48734V18.05C18.6834 18.3983 18.3984 18.6833 18.0501 18.6833H8.55008C8.20175 18.6833 7.91675 18.3983 7.91675 18.05V9.48734H18.6834Z" fill="#FC925D"/>
<path d="M18.5867 9.25838L16.7076 7.37928C16.6462 7.31784 16.5632 7.28333 16.4764 7.28333H10.1238C10.037 7.28333 9.95372 7.31784 9.89261 7.37928L8.01351 9.25838C7.80736 9.46453 7.95334 9.81666 8.24467 9.81666H18.3558C18.6472 9.81666 18.7928 9.46453 18.5867 9.25838Z" fill="#FF722B"/>
<path d="M14.8832 9.81667V12.0333C14.8832 12.2081 14.7414 12.35 14.5666 12.35H12.0332C11.8584 12.35 11.7166 12.2081 11.7166 12.0333V9.81667L12.0332 9.5H14.5666L14.8832 9.81667Z" fill="#035997"/>
<path d="M11.0833 15.8333H9.50002C9.32513 15.8333 9.18335 15.9751 9.18335 16.15V17.1C9.18335 17.2749 9.32513 17.4167 9.50002 17.4167H11.0833C11.2582 17.4167 11.4 17.2749 11.4 17.1V16.15C11.4 15.9751 11.2582 15.8333 11.0833 15.8333Z" fill="white"/>
<path d="M14.8832 9.81666L13.9332 7.28333H12.6666L11.7166 9.81666H14.8832Z" fill="#004576"/>
<path d="M15.4239 15.6095C15.3001 15.4856 15.1 15.4856 14.9762 15.6095L14.6595 15.9261C14.5357 16.0499 14.5357 16.2501 14.6595 16.3739C14.7213 16.4356 14.8023 16.4667 14.8834 16.4667V17.4167C14.8834 17.5918 15.0249 17.7333 15.2001 17.7333C15.3752 17.7333 15.5167 17.5918 15.5167 17.4167V16.4667C15.5978 16.4667 15.6789 16.4356 15.7406 16.3739C15.8644 16.2501 15.8644 16.0499 15.7406 15.9261L15.4239 15.6095Z" fill="white"/>
<path d="M17.6405 15.9261L17.3238 15.6095C17.2 15.4856 16.9999 15.4856 16.8761 15.6095L16.5594 15.9261C16.4356 16.0499 16.4356 16.2501 16.5594 16.3739C16.6212 16.4356 16.7022 16.4667 16.7833 16.4667V17.4167C16.7833 17.5918 16.9248 17.7333 17.1 17.7333C17.2751 17.7333 17.4166 17.5918 17.4166 17.4167V16.4667C17.4977 16.4667 17.5788 16.4356 17.6405 16.3739C17.7643 16.2501 17.7643 16.0499 17.6405 15.9261Z" fill="white"/>
<path d="M4.43323 7.28332C4.34963 7.28332 4.26888 7.25039 4.20935 7.19054L3.57602 6.5572C3.4522 6.43339 3.4522 6.23325 3.57602 6.10944C3.69983 5.98562 3.89997 5.98562 4.02378 6.10944L4.38415 6.4698L5.43643 4.89122C5.53333 4.74555 5.72967 4.70629 5.87565 4.8035C6.02132 4.90072 6.06058 5.09705 5.96337 5.24272L4.6967 7.14272C4.64413 7.22157 4.55863 7.27287 4.46458 7.28205C4.45413 7.283 4.44368 7.28332 4.43323 7.28332Z" fill="#43A867"/>
<path d="M4.43323 11.0833C4.34963 11.0833 4.26888 11.0504 4.20935 10.9905L3.57602 10.3572C3.4522 10.2334 3.4522 10.0332 3.57602 9.90942C3.69983 9.78561 3.89997 9.78561 4.02378 9.90942L4.38415 10.2698L5.43643 8.69121C5.53333 8.54554 5.72967 8.50627 5.87565 8.60349C6.02132 8.70071 6.06058 8.89704 5.96337 9.04271L4.6967 10.9427C4.64413 11.0216 4.55863 11.0729 4.46458 11.082C4.45413 11.083 4.44368 11.0833 4.43323 11.0833Z" fill="#43A867"/>
<path d="M4.43323 14.8833C4.34963 14.8833 4.26888 14.8504 4.20935 14.7905L3.57602 14.1572C3.4522 14.0334 3.4522 13.8332 3.57602 13.7094C3.69983 13.5856 3.89997 13.5856 4.02378 13.7094L4.38415 14.0698L5.43643 12.4912C5.53333 12.3455 5.72967 12.3066 5.87565 12.4035C6.02132 12.5007 6.06058 12.697 5.96337 12.8427L4.6967 14.7427C4.64413 14.8216 4.55863 14.8729 4.46458 14.882C4.45413 14.883 4.44368 14.8833 4.43323 14.8833Z" fill="#43A867"/>
</g>
<defs>
<clipPath id="clip0_30609_17446">
<rect width="19" height="19" fill="white"/>
</clipPath>
</defs>
</svg>
