<svg width="23" height="23" viewBox="0 0 23 23" fill="none" xmlns="http://www.w3.org/2000/svg">
<path fill-rule="evenodd" clip-rule="evenodd" d="M18.6356 1.98285H22.09C22.3599 1.98254 22.6161 2.08691 22.789 2.26771C22.962 2.44852 23.034 2.68704 22.9854 2.91871C20.9446 12.8166 20.8491 19.903 20.8855 22.1991C20.8879 22.4108 20.7932 22.6145 20.6225 22.765C20.4517 22.9155 20.2191 23.0001 19.9764 23.0001H17.7266L18.6356 1.98285Z" fill="#D1D4D1"/>
<path d="M17.7263 0H0.909043C0.406992 0 0 0.355084 0 0.793103V22.2069C0 22.6449 0.406992 23 0.909043 23H17.7263C18.2284 23 18.6354 22.6449 18.6354 22.2069V0.793103C18.6354 0.355084 18.2284 0 17.7263 0Z" fill="#FFE0D1"/>
<path fill-rule="evenodd" clip-rule="evenodd" d="M4.09041 1.58622C3.83938 1.58622 3.63589 1.76376 3.63589 1.98277V3.77241L2.20324 1.7726C2.09577 1.62258 1.88741 1.55281 1.6925 1.60158C1.49759 1.65035 1.36328 1.80586 1.36328 1.98277V5.15518C1.36328 5.37419 1.56678 5.55173 1.8178 5.55173C2.06883 5.55173 2.27232 5.37419 2.27232 5.15518V3.36554L3.70498 5.36535C3.81244 5.51537 4.0208 5.58514 4.21571 5.53637C4.41062 5.4876 4.54493 5.33209 4.54493 5.15518V1.98277C4.54493 1.76376 4.34143 1.58622 4.09041 1.58622Z" fill="#035997"/>
<path fill-rule="evenodd" clip-rule="evenodd" d="M7.72573 2.37929C7.97676 2.37929 8.18025 2.20174 8.18025 1.98273C8.18025 1.76372 7.97676 1.58618 7.72573 1.58618H5.90765C5.65662 1.58618 5.45312 1.76372 5.45312 1.98273V5.15515C5.45312 5.37416 5.65662 5.5517 5.90765 5.5517H7.72573C7.97676 5.5517 8.18025 5.37416 8.18025 5.15515C8.18025 4.93614 7.97676 4.7586 7.72573 4.7586H6.36217V3.96549H7.72573C7.97676 3.96549 8.18025 3.78795 8.18025 3.56894C8.18025 3.34993 7.97676 3.17239 7.72573 3.17239H6.36217V2.37929H7.72573Z" fill="#035997"/>
<path fill-rule="evenodd" clip-rule="evenodd" d="M12.7825 1.58927C12.5335 1.56218 12.3064 1.71625 12.2752 1.93348L11.9839 3.96541L11.2975 2.96769C11.2095 2.85561 11.0638 2.78861 10.908 2.78861C10.7523 2.78861 10.6066 2.85561 10.5185 2.96769L9.83217 3.96541L9.54082 1.93308C9.50442 1.72008 9.27982 1.57137 9.0349 1.59808C8.78997 1.62479 8.61424 1.81716 8.63905 2.03143L9.09357 5.20384C9.11772 5.37152 9.26101 5.50742 9.45052 5.54238C9.64002 5.57735 9.8341 5.50369 9.93398 5.35889L10.908 3.9432L11.8821 5.35929C11.9642 5.4786 12.1121 5.55159 12.2716 5.55162C12.303 5.55159 12.3344 5.5488 12.3652 5.54329C12.555 5.50837 12.6985 5.37219 12.7225 5.20424L13.177 2.03182C13.208 1.81458 13.0314 1.61649 12.7825 1.58927Z" fill="#035997"/>
<path fill-rule="evenodd" clip-rule="evenodd" d="M15.4548 3.17239C14.9094 3.17239 14.5458 2.93446 14.5458 2.77584C14.5459 2.76224 14.549 2.74879 14.5549 2.73618C14.5589 2.72627 14.5817 2.69018 14.5853 2.67987C14.8055 2.46673 15.1271 2.35554 15.4548 2.37928C15.7851 2.35668 16.1088 2.46868 16.3316 2.68265C16.4683 2.8583 16.7394 2.90881 16.9464 2.79723C17.1535 2.68565 17.2231 2.45158 17.1043 2.26627C16.7222 1.81019 16.1012 1.55416 15.4548 1.58618C14.8159 1.55553 14.2018 1.80572 13.8185 2.25278C13.7717 2.31143 13.7348 2.37568 13.709 2.44353C13.661 2.54931 13.6365 2.66208 13.6367 2.77584C13.6367 3.44284 14.4353 3.96549 15.4548 3.96549C16.0002 3.96549 16.3638 4.20342 16.3638 4.36204C16.3617 4.38634 16.3546 4.41011 16.3429 4.43223C16.3396 4.44007 16.3358 4.44774 16.3316 4.45523C16.1088 4.6692 15.7851 4.7812 15.4548 4.75859C15.1272 4.78254 14.8056 4.67165 14.5853 4.4588C14.4528 4.2775 14.1788 4.22136 13.9677 4.33224C13.7565 4.44312 13.6851 4.68062 13.8067 4.86765C14.1881 5.32416 14.8082 5.58152 15.4548 5.5517C16.1087 5.58371 16.7358 5.32101 17.1161 4.85575C17.1503 4.80456 17.1784 4.75049 17.2002 4.69435C17.2483 4.58859 17.273 4.47583 17.2729 4.36204C17.2729 3.69504 16.4743 3.17239 15.4548 3.17239Z" fill="#035997"/>
<path d="M16.365 7.13806H2.27483C2.02381 7.13806 1.82031 7.3156 1.82031 7.53461V8.32772C1.82031 8.54673 2.02381 8.72427 2.27483 8.72427H16.365C16.616 8.72427 16.8195 8.54673 16.8195 8.32772V7.53461C16.8195 7.3156 16.616 7.13806 16.365 7.13806Z" fill="#E77237"/>
<path d="M15.9093 10.707H10.9096C10.6586 10.707 10.4551 10.8846 10.4551 11.1036V16.2588C10.4551 16.4778 10.6586 16.6553 10.9096 16.6553H15.9093C16.1604 16.6553 16.3639 16.4778 16.3639 16.2588V11.1036C16.3639 10.8846 16.1604 10.707 15.9093 10.707Z" fill="#E77237"/>
<path fill-rule="evenodd" clip-rule="evenodd" d="M8.18361 11.103H2.27483C2.02381 11.103 1.82031 10.9254 1.82031 10.7064C1.82031 10.4874 2.02381 10.3099 2.27483 10.3099H8.18361C8.43464 10.3099 8.63813 10.4874 8.63813 10.7064C8.63813 10.9254 8.43464 11.103 8.18361 11.103Z" fill="#E77237"/>
<path fill-rule="evenodd" clip-rule="evenodd" d="M8.18361 13.0858H2.27483C2.02381 13.0858 1.82031 12.9083 1.82031 12.6893C1.82031 12.4703 2.02381 12.2927 2.27483 12.2927H8.18361C8.43464 12.2927 8.63813 12.4703 8.63813 12.6893C8.63813 12.9083 8.43464 13.0858 8.18361 13.0858Z" fill="#E77237"/>
<path fill-rule="evenodd" clip-rule="evenodd" d="M8.18361 15.0687H2.27483C2.02381 15.0687 1.82031 14.8911 1.82031 14.6721C1.82031 14.4531 2.02381 14.2756 2.27483 14.2756H8.18361C8.43464 14.2756 8.63813 14.4531 8.63813 14.6721C8.63813 14.8911 8.43464 15.0687 8.18361 15.0687Z" fill="#E77237"/>
<path fill-rule="evenodd" clip-rule="evenodd" d="M8.18361 17.0511H2.27483C2.02381 17.0511 1.82031 16.8736 1.82031 16.6545C1.82031 16.4355 2.02381 16.258 2.27483 16.258H8.18361C8.43464 16.258 8.63813 16.4355 8.63813 16.6545C8.63813 16.8736 8.43464 17.0511 8.18361 17.0511Z" fill="#E77237"/>
<path fill-rule="evenodd" clip-rule="evenodd" d="M8.18361 19.0349H2.27483C2.02381 19.0349 1.82031 18.8573 1.82031 18.6383C1.82031 18.4193 2.02381 18.2418 2.27483 18.2418H8.18361C8.43464 18.2418 8.63813 18.4193 8.63813 18.6383C8.63813 18.8573 8.43464 19.0349 8.18361 19.0349Z" fill="#E77237"/>
<path fill-rule="evenodd" clip-rule="evenodd" d="M8.18361 21.0173H2.27483C2.02381 21.0173 1.82031 20.8397 1.82031 20.6207C1.82031 20.4017 2.02381 20.2242 2.27483 20.2242H8.18361C8.43464 20.2242 8.63813 20.4017 8.63813 20.6207C8.63813 20.8397 8.43464 21.0173 8.18361 21.0173Z" fill="#E77237"/>
<path fill-rule="evenodd" clip-rule="evenodd" d="M16.3653 19.0349H10.4565C10.2054 19.0349 10.002 18.8573 10.002 18.6383C10.002 18.4193 10.2054 18.2418 10.4565 18.2418H16.3653C16.6163 18.2418 16.8198 18.4193 16.8198 18.6383C16.8198 18.8573 16.6163 19.0349 16.3653 19.0349Z" fill="#E77237"/>
<path fill-rule="evenodd" clip-rule="evenodd" d="M16.3653 21.0173H10.4565C10.2054 21.0173 10.002 20.8397 10.002 20.6207C10.002 20.4017 10.2054 20.2242 10.4565 20.2242H16.3653C16.6163 20.2242 16.8198 20.4017 16.8198 20.6207C16.8198 20.8397 16.6163 21.0173 16.3653 21.0173Z" fill="#E77237"/>
</svg>
