<svg width="25" height="25" viewBox="0 0 25 25" fill="none" xmlns="http://www.w3.org/2000/svg">
<g clip-path="url(#clip0_28022_5996)">
<path d="M21.6777 11.916C21.3434 11.9155 21.0178 12.0224 20.7488 12.221C20.4799 12.4195 20.2818 12.6992 20.1838 13.0188C20.0858 13.3384 20.093 13.6811 20.2045 13.9963C20.3159 14.3115 20.5256 14.5825 20.8027 14.7695C21.06 14.9468 21.3653 15.0415 21.6777 15.041C22.0921 15.041 22.4896 14.8764 22.7826 14.5834C23.0756 14.2903 23.2402 13.8929 23.2402 13.4785C23.2402 13.0641 23.0756 12.6667 22.7826 12.3737C22.4896 12.0806 22.0921 11.916 21.6777 11.916ZM21.6777 14.2598C21.5232 14.2598 21.3722 14.2139 21.2437 14.1281C21.1152 14.0423 21.0151 13.9202 20.956 13.7775C20.8968 13.6347 20.8814 13.4776 20.9115 13.3261C20.9416 13.1746 21.0161 13.0353 21.1253 12.9261C21.2346 12.8168 21.3738 12.7424 21.5253 12.7123C21.6769 12.6821 21.834 12.6976 21.9767 12.7567C22.1195 12.8159 22.2415 12.916 22.3273 13.0445C22.4132 13.173 22.459 13.324 22.459 13.4785C22.459 13.5811 22.4388 13.6827 22.3996 13.7775C22.3603 13.8723 22.3028 13.9585 22.2302 14.031C22.1577 14.1036 22.0715 14.1611 21.9767 14.2004C21.882 14.2396 21.7803 14.2598 21.6777 14.2598Z" fill="#2D4356"/>
<path d="M21.6777 14.2578C22.1092 14.2578 22.459 13.908 22.459 13.4766C22.459 13.0451 22.1092 12.6953 21.6777 12.6953C21.2463 12.6953 20.8965 13.0451 20.8965 13.4766C20.8965 13.908 21.2463 14.2578 21.6777 14.2578Z" fill="#FFE0D1"/>
<path d="M3.31838 11.916C2.93912 11.916 2.5728 12.0539 2.28774 12.3041C2.00268 12.5543 1.81834 12.8996 1.76909 13.2756C1.71984 13.6516 1.80905 14.0328 2.02009 14.3479C2.23112 14.663 2.54956 14.8906 2.91603 14.9883C3.0472 15.0237 3.18251 15.0414 3.31838 15.041C3.73223 15.0392 4.12863 14.8741 4.42128 14.5814C4.71392 14.2888 4.87911 13.8924 4.88088 13.4785C4.88033 13.0643 4.71553 12.6672 4.42263 12.3743C4.12972 12.0814 3.73261 11.9166 3.31838 11.916ZM3.31838 14.2598C3.16386 14.2598 3.01282 14.2139 2.88434 14.1281C2.75586 14.0423 2.65573 13.9202 2.5966 13.7775C2.53747 13.6347 2.522 13.4776 2.55214 13.3261C2.58228 13.1746 2.65669 13.0353 2.76595 12.9261C2.87521 12.8168 3.01442 12.7424 3.16596 12.7123C3.31751 12.6821 3.4746 12.6976 3.61735 12.7567C3.7601 12.8159 3.88212 12.916 3.96796 13.0445C4.05381 13.173 4.09963 13.324 4.09963 13.4785C4.09966 13.5811 4.07947 13.6827 4.04022 13.7775C4.00096 13.8723 3.94342 13.9585 3.87087 14.031C3.79832 14.1036 3.71218 14.1611 3.61738 14.2004C3.52258 14.2396 3.42098 14.2598 3.31838 14.2598Z" fill="#2D4356"/>
<path d="M3.31836 14.2578C3.74983 14.2578 4.09961 13.908 4.09961 13.4766C4.09961 13.0451 3.74983 12.6953 3.31836 12.6953C2.88689 12.6953 2.53711 13.0451 2.53711 13.4766C2.53711 13.908 2.88689 14.2578 3.31836 14.2578Z" fill="#FFE0D1"/>
<path d="M12.502 0C12.0384 0 11.5853 0.137459 11.1998 0.394993C10.8144 0.652528 10.514 1.01857 10.3366 1.44684C10.1592 1.8751 10.1128 2.34635 10.2032 2.80099C10.2937 3.25564 10.5169 3.67325 10.8447 4.00103C11.1725 4.32881 11.5901 4.55203 12.0447 4.64247C12.4994 4.7329 12.9706 4.68649 13.3989 4.50909C13.8271 4.3317 14.1932 4.0313 14.4507 3.64587C14.7082 3.26044 14.8457 2.8073 14.8457 2.34375C14.8452 1.7223 14.5981 1.12644 14.1587 0.687012C13.7193 0.247581 13.1234 0.000492431 12.502 0ZM12.502 3.90625C12.1929 3.90625 11.8908 3.81461 11.6339 3.64292C11.3769 3.47123 11.1767 3.2272 11.0584 2.94169C10.9401 2.65618 10.9092 2.34202 10.9695 2.03892C11.0298 1.73583 11.1786 1.45742 11.3971 1.2389C11.6156 1.02038 11.894 0.871563 12.1971 0.811273C12.5002 0.750984 12.8144 0.781926 13.0999 0.900188C13.3854 1.01845 13.6294 1.21872 13.8011 1.47567C13.9728 1.73262 14.0645 2.03472 14.0645 2.34375C14.0639 2.75798 13.8991 3.15509 13.6062 3.448C13.3133 3.7409 12.9162 3.9057 12.502 3.90625Z" fill="#2D4356"/>
<path d="M14.0645 2.34375C14.0645 2.65278 13.9728 2.95488 13.8011 3.21183C13.6294 3.46878 13.3854 3.66905 13.0999 3.78731C12.8144 3.90557 12.5002 3.93652 12.1971 3.87623C11.894 3.81594 11.6156 3.66712 11.3971 3.4486C11.1786 3.23008 11.0298 2.95167 10.9695 2.64858C10.9092 2.34548 10.9401 2.03132 11.0584 1.74581C11.1767 1.4603 11.3769 1.21627 11.6339 1.04458C11.8908 0.872889 12.1929 0.78125 12.502 0.78125C12.9162 0.781801 13.3133 0.946598 13.6062 1.2395C13.8991 1.53241 14.0639 1.92952 14.0645 2.34375Z" fill="#FFE0D1"/>
<path d="M25.0002 16.9102V20.2598C25.0066 20.5658 24.8913 20.8618 24.6796 21.083C24.468 21.3041 24.1773 21.4323 23.8713 21.4395H23.342L23.262 23.834C23.2619 24.1424 23.1399 24.4382 22.9226 24.657C22.7052 24.8758 22.4102 24.9998 22.1018 25.002H20.9495C20.6322 25.0031 20.327 24.8805 20.0987 24.6603C19.8704 24.44 19.737 24.1394 19.7268 23.8223L19.5374 17.3672C19.5374 17.3672 16.3108 14.4395 16.3049 14.4355C16.0818 14.2796 15.9196 14.0511 15.8459 13.7891L15.3577 11.9121L15.0393 23.8398C15.0281 24.1574 14.8919 24.4577 14.6603 24.6754C14.4288 24.893 14.1207 25.0104 13.803 25.002H11.1975C10.8783 25.0099 10.569 24.8911 10.3372 24.6714C10.1055 24.4518 9.97028 24.1492 9.96118 23.8301L9.64087 11.8281L9.12329 13.7832C9.06064 14.0152 8.9284 14.2224 8.74439 14.377C8.72876 14.3945 5.46314 17.3672 5.46314 17.3672L5.27368 23.834C5.261 24.1492 5.12643 24.4471 4.89834 24.665C4.67025 24.8829 4.36646 25.0037 4.05103 25.002H2.89868C2.58847 24.9991 2.29206 24.8733 2.07454 24.6521C1.85702 24.4309 1.73617 24.1325 1.73853 23.8223L1.65845 21.4395H1.12915C0.823151 21.4323 0.53247 21.3041 0.320847 21.083C0.109224 20.8618 -0.00606986 20.5658 0.000246496 20.2598V16.9102C0.0161402 16.4682 0.167152 16.0418 0.43292 15.6884C0.698689 15.335 1.06643 15.0715 1.48657 14.9336C1.5848 15.0565 1.69469 15.1697 1.8147 15.2715C1.987 15.4174 2.17982 15.5371 2.38697 15.627H2.02954C1.69967 15.6487 1.38954 15.7918 1.15905 16.0288C0.928554 16.2658 0.794045 16.5798 0.781496 16.9102V20.2598C0.775228 20.3586 0.808237 20.4559 0.873344 20.5305C0.93845 20.6051 1.03039 20.651 1.12915 20.6582H1.63111L1.54322 17.9844C1.54134 17.9332 1.54958 17.8821 1.56747 17.834C1.58535 17.786 1.61253 17.742 1.64745 17.7045C1.68237 17.667 1.72434 17.6367 1.77096 17.6154C1.81759 17.5941 1.86795 17.5823 1.91917 17.5805C1.97039 17.5787 2.02146 17.587 2.06946 17.6049C2.11746 17.6229 2.16145 17.6501 2.19892 17.6851C2.23638 17.7201 2.26658 17.7621 2.28778 17.8088C2.30899 17.8554 2.32079 17.9058 2.32251 17.957L2.51782 23.8086C2.51574 23.8607 2.52393 23.9126 2.54195 23.9616C2.55997 24.0105 2.58745 24.0553 2.62282 24.0936C2.65819 24.1319 2.70076 24.1628 2.7481 24.1846C2.79543 24.2064 2.84661 24.2187 2.89868 24.2207H3.12525V19.9238C3.12525 19.8202 3.1664 19.7209 3.23966 19.6476C3.31291 19.5744 3.41227 19.5332 3.51587 19.5332C3.61947 19.5332 3.71883 19.5744 3.79208 19.6476C3.86534 19.7209 3.9065 19.8202 3.9065 19.9238V24.2207H4.05103C4.16084 24.2206 4.26671 24.1798 4.34823 24.1062C4.42974 24.0327 4.48111 23.9315 4.49243 23.8223L4.68775 17.1777C4.68929 17.1252 4.70151 17.0735 4.72367 17.0258C4.74584 16.9781 4.77747 16.9355 4.81665 16.9004L7.42798 14.5293C7.1364 14.4235 6.89797 14.2075 6.76392 13.9277L5.55493 14.9844C5.49073 15.0397 5.41031 15.0726 5.32577 15.0782C5.24124 15.0839 5.15716 15.0619 5.08618 15.0156C5.26409 14.8119 5.4049 14.5785 5.5022 14.3262C5.55886 14.1837 5.60074 14.0358 5.6272 13.8848L6.70728 12.9414L7.90845 6.39453C8.15259 5.16797 8.90845 4.49414 10.0393 4.49414H10.2366C10.3799 4.64607 10.539 4.78226 10.7112 4.90039C10.9308 5.05694 11.1706 5.18308 11.4241 5.27539H10.0393C9.2815 5.27539 8.8479 5.67773 8.67406 6.54102C8.67406 6.54102 7.43774 13.2891 7.43578 13.2988C7.40805 13.4026 7.42166 13.5132 7.47375 13.6071C7.52584 13.7011 7.61235 13.7712 7.71508 13.8027L7.89477 13.8555C7.94414 13.8685 7.99561 13.8717 8.04622 13.8648C8.09684 13.858 8.14559 13.8412 8.18969 13.8154C8.23379 13.7896 8.27236 13.7554 8.3032 13.7147C8.33403 13.674 8.35652 13.6276 8.36938 13.5781C8.37133 13.5762 9.55102 9.11328 9.55102 9.11328C9.57678 9.02506 9.62898 8.94686 9.70058 8.88923C9.77218 8.83161 9.85973 8.79733 9.95142 8.79102C10.0028 8.78956 10.0539 8.79827 10.1018 8.81666C10.1498 8.83504 10.1937 8.86273 10.2309 8.89813C10.2681 8.93353 10.2979 8.97594 10.3187 9.02292C10.3394 9.0699 10.3507 9.12052 10.3518 9.17188L10.7424 23.8203C10.7498 23.9337 10.8018 24.0396 10.8871 24.1147C10.9725 24.1897 11.0841 24.2279 11.1975 24.2207H12.1096V16.0176C12.1096 15.914 12.1508 15.8146 12.224 15.7414C12.2973 15.6681 12.3966 15.627 12.5002 15.627C12.6038 15.627 12.7032 15.6681 12.7765 15.7414C12.8497 15.8146 12.8909 15.914 12.8909 16.0176V24.2207H13.803C13.9149 24.2282 14.0253 24.1915 14.1104 24.1184C14.1955 24.0454 14.2485 23.9418 14.2581 23.8301L14.6487 9.17188C14.6536 9.07703 14.6918 8.98694 14.7564 8.91733C14.821 8.84773 14.908 8.80302 15.0022 8.79102C15.0921 8.78947 15.1802 8.81615 15.2541 8.8673C15.3281 8.91845 15.3841 8.99151 15.4143 9.07617C15.4299 9.10547 16.5999 13.584 16.5999 13.584C16.6298 13.6847 16.6983 13.7696 16.7905 13.8201C16.8826 13.8706 16.991 13.8826 17.092 13.8535L17.2756 13.8027C17.3801 13.7732 17.4689 13.7039 17.5229 13.6097C17.577 13.5155 17.5919 13.4039 17.5647 13.2988C17.5627 13.291 16.2971 6.53711 16.2971 6.53711C16.1213 5.67773 15.678 5.27539 14.9006 5.27539H13.5764C13.8301 5.18231 14.0705 5.05622 14.2913 4.90039C14.4616 4.78055 14.6198 4.6445 14.7639 4.49414H14.9006C16.0471 4.49414 16.8147 5.16602 17.0627 6.38867L18.2913 12.9395L19.3733 13.8848C19.4117 14.1011 19.4807 14.3109 19.5784 14.5078C19.6677 14.691 19.7807 14.8617 19.9143 15.0156C19.8435 15.0624 19.7593 15.0846 19.6747 15.079C19.59 15.0733 19.5095 15.0401 19.4456 14.9844L18.2346 13.9277C18.099 14.2066 17.8601 14.4217 17.5686 14.5273L20.1838 16.9004C20.223 16.9355 20.2547 16.9781 20.2768 17.0258C20.299 17.0735 20.3112 17.1252 20.3127 17.1777L20.5081 23.8105C20.5168 23.9218 20.5671 24.0257 20.6488 24.1017C20.7306 24.1776 20.8379 24.2201 20.9495 24.2207H21.094V19.9238C21.094 19.8202 21.1351 19.7209 21.2084 19.6476C21.2817 19.5744 21.381 19.5332 21.4846 19.5332C21.5882 19.5332 21.6876 19.5744 21.7608 19.6476C21.8341 19.7209 21.8752 19.8202 21.8752 19.9238V24.2207H22.1018C22.2048 24.2178 22.3024 24.1742 22.3734 24.0996C22.4444 24.025 22.483 23.9253 22.4807 23.8223L22.678 17.957C22.6797 17.9058 22.6915 17.8554 22.7127 17.8088C22.7339 17.7621 22.7641 17.7201 22.8016 17.6851C22.839 17.6501 22.883 17.6229 22.931 17.6049C22.979 17.587 23.0301 17.5787 23.0813 17.5805C23.1325 17.5823 23.1829 17.5941 23.2295 17.6154C23.2761 17.6367 23.3181 17.667 23.353 17.7045C23.388 17.742 23.4151 17.786 23.433 17.834C23.4509 17.8821 23.4592 17.9332 23.4573 17.9844L23.3694 20.6582H23.8713C23.9701 20.651 24.062 20.6051 24.1271 20.5305C24.1923 20.4559 24.2253 20.3586 24.219 20.2598V16.9102C24.2064 16.5798 24.0719 16.2658 23.8414 16.0288C23.611 15.7918 23.3008 15.6487 22.9709 15.627H22.6135C22.8161 15.5386 23.0049 15.4215 23.1741 15.2793C23.2989 15.176 23.4127 15.0601 23.5139 14.9336C23.9343 15.0712 24.3022 15.3345 24.568 15.688C24.8339 16.0415 24.9847 16.4681 25.0002 16.9102Z" fill="#2D4356"/>
<path d="M22.9688 15.3535H22.6113L22.6127 15.3529C22.3183 15.4832 21.9997 15.55 21.6777 15.5488C21.343 15.5473 21.0123 15.4746 20.7078 15.3356C20.4032 15.1966 20.1317 14.9945 19.9111 14.7426C19.8404 14.7891 19.7564 14.8111 19.6719 14.8054C19.5875 14.7997 19.5072 14.7665 19.4434 14.7109L18.2324 13.6543C18.0968 13.9332 17.8579 14.1482 17.5664 14.2539L20.1816 16.627C20.2208 16.662 20.2525 16.7047 20.2746 16.7524C20.2968 16.8 20.309 16.8517 20.3105 16.9043L20.5059 23.5371C20.5146 23.6484 20.5649 23.7523 20.6466 23.8282C20.7284 23.9042 20.8357 23.9467 20.9473 23.9473H21.0918V19.6504C21.0918 19.5468 21.133 19.4474 21.2062 19.3742C21.2795 19.3009 21.3788 19.2598 21.4824 19.2598C21.586 19.2598 21.6854 19.3009 21.7586 19.3742C21.8319 19.4474 21.873 19.5468 21.873 19.6504V23.9473H22.0996C22.2026 23.9443 22.3002 23.9008 22.3712 23.8262C22.4422 23.7515 22.4808 23.6518 22.4785 23.5488L22.6758 17.6836C22.6775 17.6324 22.6893 17.582 22.7105 17.5353C22.7317 17.4887 22.7619 17.4467 22.7994 17.4117C22.8368 17.3767 22.8808 17.3495 22.9288 17.3315C22.9768 17.3135 23.0279 17.3052 23.0791 17.307C23.1303 17.3088 23.1807 17.3207 23.2273 17.342C23.274 17.3633 23.3159 17.3935 23.3508 17.431C23.3858 17.4685 23.4129 17.5126 23.4308 17.5606C23.4487 17.6086 23.457 17.6597 23.4551 17.7109L23.3672 20.3848H23.8691C23.9679 20.3776 24.0598 20.3317 24.1249 20.2571C24.1901 20.1825 24.2231 20.0852 24.2168 19.9863V16.6367C24.2042 16.3064 24.0697 15.9924 23.8392 15.7554C23.6088 15.5184 23.2986 15.3752 22.9688 15.3535Z" fill="#035997"/>
<path d="M6.76443 13.6543L5.55544 14.7109C5.49124 14.7662 5.41082 14.7991 5.32628 14.8048C5.24175 14.8104 5.15767 14.7885 5.08669 14.7422L5.08789 14.7407C5.03828 14.7976 4.98621 14.8526 4.93086 14.9047C4.59835 15.2222 4.17934 15.4342 3.7266 15.5141C3.27386 15.5939 2.80761 15.5381 2.38654 15.3535H2.03005C1.70018 15.3752 1.39005 15.5184 1.15955 15.7554C0.929061 15.9924 0.794553 16.3064 0.782004 16.6367V19.9863C0.775736 20.0852 0.808745 20.1825 0.873851 20.2571C0.938958 20.3317 1.03089 20.3776 1.12966 20.3848H1.63161L1.54372 17.7109C1.54185 17.6597 1.55009 17.6086 1.56797 17.5606C1.58586 17.5126 1.61304 17.4685 1.64796 17.431C1.68288 17.3935 1.72485 17.3633 1.77147 17.342C1.8181 17.3207 1.86846 17.3088 1.91968 17.307C1.9709 17.3052 2.02197 17.3135 2.06997 17.3315C2.11797 17.3495 2.16196 17.3767 2.19942 17.4117C2.23688 17.4467 2.26708 17.4887 2.28829 17.5353C2.3095 17.582 2.3213 17.6324 2.32302 17.6836L2.51833 23.5352C2.51624 23.5872 2.52444 23.6392 2.54246 23.6881C2.56047 23.737 2.58796 23.7819 2.62333 23.8202C2.6587 23.8584 2.70127 23.8894 2.74861 23.9112C2.79594 23.933 2.84711 23.9452 2.89919 23.9473H3.12575V19.6504C3.12575 19.5468 3.16691 19.4474 3.24017 19.3742C3.31342 19.3009 3.41278 19.2598 3.51638 19.2598C3.61998 19.2598 3.71934 19.3009 3.79259 19.3742C3.86585 19.4474 3.907 19.5468 3.907 19.6504V23.9473H4.05153C4.16135 23.9472 4.26722 23.9064 4.34874 23.8328C4.43025 23.7592 4.48162 23.6581 4.49294 23.5488L4.68825 16.9043C4.6898 16.8517 4.70202 16.8 4.72418 16.7524C4.74634 16.7047 4.77798 16.662 4.81716 16.627L7.42849 14.2559C7.13691 14.15 6.89848 13.934 6.76443 13.6543Z" fill="#035997"/>
<path d="M5.50032 14.0508L5.49933 14.051C5.49753 14.0556 5.49598 14.0603 5.49414 14.0649C5.49602 14.0601 5.49846 14.0556 5.50032 14.0508Z" fill="#FC785E"/>
<path d="M17.5629 13.0234C17.5609 13.0156 16.2953 6.26172 16.2953 6.26172C16.1195 5.40234 15.6762 5 14.8988 5H13.5755C12.8811 5.26042 12.1158 5.26042 11.4214 5H10.0375C9.2797 5 8.84611 5.40234 8.67227 6.26562C8.67227 6.26562 7.43594 13.0137 7.43399 13.0234C7.40625 13.1272 7.41986 13.2378 7.47195 13.3318C7.52404 13.4257 7.61055 13.4958 7.71328 13.5273L7.89297 13.5801C7.94235 13.5931 7.99382 13.5963 8.04443 13.5895C8.09504 13.5826 8.14379 13.5658 8.18789 13.54C8.23199 13.5142 8.27056 13.48 8.3014 13.4393C8.33224 13.3986 8.35473 13.3522 8.36758 13.3027C8.36953 13.3008 9.54922 8.83789 9.54922 8.83789C9.57498 8.74967 9.62718 8.67147 9.69878 8.61384C9.77038 8.55622 9.85793 8.52194 9.94962 8.51563C10.001 8.51417 10.0521 8.52288 10.1 8.54127C10.148 8.55965 10.1919 8.58734 10.2291 8.62274C10.2663 8.65814 10.2961 8.70055 10.3169 8.74753C10.3376 8.79451 10.3489 8.84513 10.35 8.89648L10.7406 23.5449C10.748 23.6583 10.8 23.7642 10.8853 23.8393C10.9707 23.9143 11.0823 23.9525 11.1957 23.9453H12.1078V15.7422C12.1078 15.6386 12.149 15.5392 12.2222 15.466C12.2955 15.3927 12.3948 15.3516 12.4984 15.3516C12.602 15.3516 12.7014 15.3927 12.7747 15.466C12.8479 15.5392 12.8891 15.6386 12.8891 15.7422V23.9453H13.8012C13.9131 23.9528 14.0235 23.9161 14.1086 23.843C14.1937 23.77 14.2467 23.6664 14.2563 23.5547L14.6469 8.89648C14.6518 8.80164 14.69 8.71155 14.7546 8.64194C14.8192 8.57234 14.9062 8.52763 15.0004 8.51563C15.0903 8.51408 15.1784 8.54076 15.2523 8.59191C15.3263 8.64306 15.3823 8.71612 15.4125 8.80078C15.4281 8.83008 16.5981 13.3086 16.5981 13.3086C16.628 13.4093 16.6965 13.4942 16.7887 13.5447C16.8808 13.5952 16.9892 13.6072 17.0902 13.5781L17.2738 13.5273C17.3783 13.4978 17.4671 13.4285 17.5211 13.3343C17.5752 13.2401 17.5902 13.1285 17.5629 13.0234Z" fill="#E77237"/>
<path opacity="0.5" d="M14.0645 2.3457C14.0645 2.7601 13.8998 3.15753 13.6068 3.45056C13.3138 3.74358 12.9164 3.9082 12.502 3.9082C12.0876 3.9082 11.6901 3.74358 11.3971 3.45056C11.1041 3.15753 10.9395 2.7601 10.9395 2.3457C10.9394 2.28042 10.9433 2.2152 10.9512 2.15039C10.9989 2.52802 11.1827 2.87526 11.4683 3.12697C11.7538 3.37869 12.1213 3.51757 12.502 3.51757C12.8826 3.51757 13.2501 3.37869 13.5356 3.12697C13.8212 2.87526 14.005 2.52802 14.0527 2.15039C14.0606 2.2152 14.0645 2.28042 14.0645 2.3457Z" fill="#E77237"/>
<path opacity="0.5" d="M22.459 13.4785C22.459 13.6857 22.3767 13.8844 22.2302 14.0309C22.0837 14.1775 21.885 14.2598 21.6778 14.2598C21.4706 14.2598 21.2718 14.1775 21.1253 14.0309C20.9788 13.8844 20.8965 13.6857 20.8965 13.4785C20.8959 13.4126 20.9045 13.3468 20.9219 13.2832C20.9651 13.4509 21.0627 13.5994 21.1996 13.7055C21.3364 13.8116 21.5046 13.8691 21.6778 13.8691C21.8509 13.8691 22.0191 13.8116 22.156 13.7055C22.2928 13.5994 22.3905 13.4509 22.4336 13.2832C22.4511 13.3468 22.4596 13.4126 22.459 13.4785Z" fill="#E77237"/>
<path opacity="0.5" d="M4.09964 13.4785C4.09964 13.6857 4.01733 13.8844 3.87082 14.0309C3.7243 14.1775 3.52559 14.2598 3.31839 14.2598C3.11119 14.2598 2.91247 14.1775 2.76596 14.0309C2.61945 13.8844 2.53714 13.6857 2.53714 13.4785C2.53654 13.4126 2.54509 13.3468 2.56253 13.2832C2.60569 13.4509 2.70337 13.5994 2.8402 13.7055C2.97704 13.8116 3.14526 13.8691 3.31839 13.8691C3.49152 13.8691 3.65974 13.8116 3.79658 13.7055C3.93341 13.5994 4.03109 13.4509 4.07425 13.2832C4.09169 13.3468 4.10024 13.4126 4.09964 13.4785Z" fill="#E77237"/>
<path opacity="0.5" d="M14.0645 2.34375C14.0645 2.40903 14.0606 2.47425 14.0527 2.53906C14.005 2.16144 13.8212 1.81419 13.5356 1.56248C13.2501 1.31077 12.8826 1.17188 12.502 1.17188C12.1213 1.17188 11.7538 1.31077 11.4683 1.56248C11.1827 1.81419 10.9989 2.16144 10.9512 2.53906C10.9433 2.47425 10.9394 2.40903 10.9395 2.34375C10.9395 1.92935 11.1041 1.53192 11.3971 1.2389C11.6901 0.94587 12.0876 0.78125 12.502 0.78125C12.9164 0.78125 13.3138 0.94587 13.6068 1.2389C13.8998 1.53192 14.0645 1.92935 14.0645 2.34375Z" fill="white"/>
<path opacity="0.5" d="M2.51294 23.4168L2.50555 23.1953C2.501 23.1922 2.49669 23.1887 2.49219 23.1855L2.51294 23.8074C2.51085 23.8595 2.51905 23.9115 2.53707 23.9604C2.55508 24.0093 2.58256 24.0542 2.61794 24.0924C2.65331 24.1307 2.69588 24.1616 2.74322 24.1834C2.79055 24.2052 2.84172 24.2175 2.8938 24.2195H3.12036V23.8289H2.8938C2.84172 23.8269 2.79055 23.8146 2.74322 23.7928C2.69588 23.771 2.65331 23.7401 2.61794 23.7018C2.58256 23.6635 2.55508 23.6187 2.53707 23.5697C2.51905 23.5208 2.51085 23.4689 2.51294 23.4168Z" fill="#A54B3F"/>
<path opacity="0.5" d="M4.49715 23.127L4.48828 23.4285C4.47696 23.5377 4.42559 23.6389 4.34408 23.7125C4.26256 23.7861 4.15669 23.8268 4.04687 23.827H3.90234V24.2176H4.04687C4.15669 24.2175 4.26256 24.1767 4.34408 24.1031C4.42559 24.0295 4.47696 23.9284 4.48828 23.8191L4.50857 23.1287L4.49715 23.127Z" fill="#A54B3F"/>
<path opacity="0.5" d="M14.2666 23.11L14.2578 23.4395C14.2483 23.5513 14.1952 23.6548 14.1101 23.7278C14.025 23.8009 13.9146 23.8376 13.8027 23.8301H12.8906V24.2208H13.8027C13.9146 24.2282 14.025 24.1915 14.1101 24.1185C14.1952 24.0454 14.2483 23.9419 14.2578 23.8301L14.277 23.1094C14.2735 23.1095 14.2701 23.1099 14.2666 23.11Z" fill="#A54B3F"/>
<path opacity="0.5" d="M11.1933 23.8279C11.0799 23.835 10.9683 23.7969 10.8829 23.7218C10.7976 23.6468 10.7456 23.5409 10.7382 23.4275L10.735 23.3067C10.7315 23.3067 10.7281 23.3066 10.7246 23.3066L10.7382 23.8181C10.7456 23.9315 10.7976 24.0374 10.8829 24.1124C10.9683 24.1875 11.0799 24.2257 11.1933 24.2185H12.1054V23.8279H11.1933Z" fill="#A54B3F"/>
<path opacity="0.5" d="M22.4872 23.1738L22.4785 23.4314C22.4808 23.5344 22.4422 23.6341 22.3712 23.7088C22.3002 23.7834 22.2026 23.827 22.0996 23.8299H21.873V24.2205H22.0996C22.2026 24.2176 22.3002 24.174 22.3712 24.0994C22.4422 24.0248 22.4808 23.925 22.4785 23.8221L22.5003 23.1745C22.496 23.1741 22.4914 23.1742 22.4872 23.1738Z" fill="#A54B3F"/>
<path opacity="0.5" d="M20.5061 23.4205L20.4997 23.2051C20.4958 23.2055 20.4922 23.2063 20.4883 23.2067L20.5061 23.8111C20.5148 23.9224 20.5651 24.0263 20.6468 24.1022C20.7286 24.1782 20.8359 24.2207 20.9475 24.2213H21.092V23.8307H20.9475C20.8359 23.8301 20.7286 23.7876 20.6468 23.7116C20.5651 23.6357 20.5148 23.5318 20.5061 23.4205Z" fill="#A54B3F"/>
<path opacity="0.5" d="M24.2129 19.8691V20.2598C24.2192 20.3586 24.1861 20.4559 24.121 20.5305C24.0559 20.6051 23.964 20.651 23.8652 20.6582H23.3633L23.3769 20.2676H23.8652C23.964 20.2604 24.0559 20.2145 24.121 20.1399C24.1861 20.0653 24.2192 19.968 24.2129 19.8691Z" fill="#A54B3F"/>
<path opacity="0.5" d="M1.62771 20.6582H1.12575C1.02699 20.651 0.935051 20.6051 0.869945 20.5305C0.804839 20.4559 0.771829 20.3586 0.778098 20.2598V19.8691C0.771829 19.968 0.804839 20.0653 0.869945 20.1399C0.935051 20.2145 1.02699 20.2604 1.12575 20.2676H1.61404L1.62771 20.6582Z" fill="#A54B3F"/>
</g>
<defs>
<clipPath id="clip0_28022_5996">
<rect width="25" height="25" fill="white"/>
</clipPath>
</defs>
</svg>
