<svg width="24" height="27" viewBox="0 0 24 27" fill="none" xmlns="http://www.w3.org/2000/svg">
<path d="M11.8215 26.5965C11.8215 26.5965 0 25.2208 0 5.50272L11.8215 0L23.6431 5.50272C23.6431 25.2208 11.8215 26.5965 11.8215 26.5965Z" fill="#E77237"/>
<path d="M11.8223 24.762C11.8223 24.762 2.05664 22.4692 2.05664 6.41958L11.8223 1.83398L21.5879 6.41958C21.5879 22.4692 11.8223 24.762 11.8223 24.762Z" fill="#FFE0D1"/>
<path d="M10.5981 18C10.2552 18.0005 9.92413 17.8779 9.66828 17.6555L5.46707 14.0189C5.19074 13.7784 5.02361 13.441 5.00232 13.0807C4.98102 12.7204 5.10729 12.3665 5.35346 12.0967C5.59963 11.8269 5.9456 11.6632 6.31554 11.6414C6.68548 11.6196 7.04921 11.7415 7.32699 11.9804L10.5089 14.7345L16.5792 8.4308C16.8331 8.16707 17.1841 8.01236 17.5552 8.00071C17.9262 7.98906 18.2868 8.12141 18.5576 8.36866C18.8284 8.6159 18.9873 8.95779 18.9993 9.3191C19.0112 9.68042 18.8753 10.0316 18.6214 10.2953L11.6194 17.5685C11.4887 17.7048 11.3305 17.8134 11.1548 17.8877C10.9792 17.9619 10.7897 18.0001 10.5981 18Z" fill="#035997"/>
</svg>
