<svg width="25" height="25" viewBox="0 0 25 25" fill="none" xmlns="http://www.w3.org/2000/svg">
<path d="M24 12.5C24 18.8513 18.8513 24 12.5 24C6.14873 24 1 18.8513 1 12.5C1 6.14873 6.14873 1 12.5 1C18.8513 1 24 6.14873 24 12.5Z" fill="#FFE0D1" stroke="#E77237" stroke-width="2"/>
<path d="M12.4902 8.28711C13.3532 8.28711 14.0527 7.58755 14.0527 6.72461C14.0527 5.86166 13.3532 5.16211 12.4902 5.16211C11.6273 5.16211 10.9277 5.86166 10.9277 6.72461C10.9277 7.58755 11.6273 8.28711 12.4902 8.28711Z" fill="#035997"/>
<path d="M12.4941 19.8496C12.1626 19.8496 11.8447 19.7179 11.6103 19.4835C11.3758 19.2491 11.2441 18.9311 11.2441 18.5996V12.3496C10.9126 12.3496 10.5947 12.2179 10.3603 11.9835C10.1258 11.7491 9.99414 11.4311 9.99414 11.0996C9.99414 10.7681 10.1258 10.4501 10.3603 10.2157C10.5947 9.98131 10.9126 9.84961 11.2441 9.84961H12.4941C12.8257 9.84961 13.1436 9.98131 13.378 10.2157C13.6124 10.4501 13.7441 10.7681 13.7441 11.0996V18.5996C13.7441 18.9311 13.6124 19.2491 13.378 19.4835C13.1436 19.7179 12.8257 19.8496 12.4941 19.8496Z" fill="#035997"/>
<path d="M13.7441 19.8496H11.2441C10.9126 19.8496 10.5947 19.7179 10.3603 19.4835C10.1258 19.2491 9.99414 18.9311 9.99414 18.5996C9.99414 18.2681 10.1258 17.9501 10.3603 17.7157C10.5947 17.4813 10.9126 17.3496 11.2441 17.3496H13.7441C14.0757 17.3496 14.3936 17.4813 14.628 17.7157C14.8624 17.9501 14.9941 18.2681 14.9941 18.5996C14.9941 18.9311 14.8624 19.2491 14.628 19.4835C14.3936 19.7179 14.0757 19.8496 13.7441 19.8496Z" fill="#035997"/>
</svg>
