<svg width="29" height="25" viewBox="0 0 29 25" fill="none" xmlns="http://www.w3.org/2000/svg">
<g clip-path="url(#clip0_28022_5928)">
<path fill-rule="evenodd" clip-rule="evenodd" d="M16.095 21.2363L8.42173 21.3356L6.71696 24.2875C6.64205 24.4172 6.74333 24.5594 6.8718 24.5594H17.7022C17.8306 24.5594 17.9319 24.4172 17.857 24.2875L16.095 21.2363Z" fill="#E77237"/>
<path fill-rule="evenodd" clip-rule="evenodd" d="M16.0947 21.2363L15.207 21.2478L16.9625 24.2875C17.0373 24.4172 16.936 24.5594 16.8076 24.5594H17.7019C17.8303 24.5594 17.9316 24.4172 17.8567 24.2875L16.0947 21.2363Z" fill="#00242F"/>
<path fill-rule="evenodd" clip-rule="evenodd" d="M22.1774 5.51562C22.8115 5.51562 23.3305 6.03926 23.3305 6.67925V20.2354C23.3305 20.8753 22.8115 21.399 22.1774 21.399H2.39533C1.7612 21.399 1.24219 20.8754 1.24219 20.2354V6.67925C1.24219 6.03921 1.7611 5.51562 2.39533 5.51562H22.1774Z" fill="#FFE0D1"/>
<path fill-rule="evenodd" clip-rule="evenodd" d="M22.1774 5.51562C22.8115 5.51562 23.3305 6.03926 23.3305 6.67925V20.2354C23.3305 20.8753 22.8115 21.399 22.1774 21.399H20.8359C21.4701 21.399 21.9891 20.8753 21.9891 20.2354V6.67925C21.9891 6.03931 21.4701 5.51562 20.8359 5.51562H22.1774Z" fill="#FFE0D1"/>
<path fill-rule="evenodd" clip-rule="evenodd" d="M23.3304 19.9023H1.24219V20.6871C1.24219 21.3271 1.7611 21.8507 2.39533 21.8507H22.1774C22.8115 21.8507 23.3305 21.3271 23.3305 20.6871V19.9023H23.3304Z" fill="#E77237"/>
<path fill-rule="evenodd" clip-rule="evenodd" d="M23.3304 19.9023H21.9891V20.6871C21.9891 21.3271 21.4701 21.8507 20.8359 21.8507H22.1773C22.8115 21.8507 23.3304 21.3271 23.3304 20.6871V19.9023Z" fill="#E77237"/>
<path fill-rule="evenodd" clip-rule="evenodd" d="M18.92 18.6582H5.65205C5.29737 18.6582 5.00781 18.3661 5.00781 18.0081V4.07949C5.00781 3.90044 5.07106 3.74639 5.19653 3.61978L8.15943 0.629883C8.28491 0.503271 8.43757 0.439453 8.61501 0.439453H18.92C19.2748 0.439453 19.5642 0.731641 19.5642 1.08955V18.0081C19.5642 18.366 19.2745 18.6582 18.92 18.6582Z" fill="white"/>
<path fill-rule="evenodd" clip-rule="evenodd" d="M18.92 18.6582H5.65205C5.29737 18.6582 5.00781 18.3661 5.00781 18.0081V17.6816H17.9521C18.3067 17.6816 18.5964 17.3894 18.5964 17.0315V0.439453H18.9199C19.2747 0.439453 19.5642 0.731641 19.5642 1.08955V18.0081C19.5642 18.366 19.2745 18.6582 18.92 18.6582Z" fill="white"/>
<path fill-rule="evenodd" clip-rule="evenodd" d="M7.16115 1.63652L8.15873 0.629883C8.2842 0.503271 8.43686 0.439453 8.6143 0.439453H8.83132V3.22319C8.83132 3.54653 8.56998 3.81016 8.24965 3.81016H5.54688C5.57813 3.74111 5.63097 3.68501 5.67975 3.61973L7.16115 1.63652Z" fill="white"/>
<path fill-rule="evenodd" clip-rule="evenodd" d="M7.38403 14.0272H9.66442C9.77683 14.0272 9.86877 14.12 9.86877 14.2334V16.5345C9.86877 16.648 9.77683 16.7407 9.66442 16.7407H7.38403C7.27162 16.7407 7.17969 16.648 7.17969 16.5345V14.2334C7.17969 14.12 7.27167 14.0272 7.38403 14.0272ZM7.38403 2.35742H9.66442C9.77683 2.35742 9.86877 2.4502 9.86877 2.56362V4.86475C9.86877 4.97817 9.77683 5.07095 9.66442 5.07095H7.38403C7.27162 5.07095 7.17969 4.97817 7.17969 4.86475V2.56362C7.17969 2.4502 7.27167 2.35742 7.38403 2.35742ZM7.38403 6.24731H9.66442C9.77683 6.24731 9.86877 6.34009 9.86877 6.45352V8.75464C9.86877 8.86807 9.77683 8.96084 9.66442 8.96084H7.38403C7.27162 8.96084 7.17969 8.86807 7.17969 8.75464V6.45352C7.17969 6.34014 7.27167 6.24731 7.38403 6.24731ZM7.38403 10.1373H9.66442C9.77683 10.1373 9.86877 10.23 9.86877 10.3435V12.6446C9.86877 12.758 9.77683 12.8508 9.66442 12.8508H7.38403C7.27162 12.8508 7.17969 12.758 7.17969 12.6446V10.3435C7.17969 10.23 7.27167 10.1373 7.38403 10.1373Z" fill="#035997"/>
<path fill-rule="evenodd" clip-rule="evenodd" d="M7.38403 14.0272H9.66442C9.77683 14.0272 9.86877 14.12 9.86877 14.2334V14.5155H7.86791C7.75551 14.5155 7.66357 14.6083 7.66357 14.7217V16.7407H7.38403C7.27162 16.7407 7.17969 16.648 7.17969 16.5345V14.2334C7.17969 14.12 7.27167 14.0272 7.38403 14.0272ZM7.38403 2.35742H9.66442C9.77683 2.35742 9.86877 2.4502 9.86877 2.56362V2.8457H7.86791C7.75551 2.8457 7.66357 2.93848 7.66357 3.0519V5.07095H7.38403C7.27162 5.07095 7.17969 4.97817 7.17969 4.86475V2.56362C7.17969 2.4502 7.27167 2.35742 7.38403 2.35742ZM7.38403 6.24731H9.66442C9.77683 6.24731 9.86877 6.34009 9.86877 6.45352V6.7356H7.86791C7.75551 6.7356 7.66357 6.82837 7.66357 6.9418V8.96084H7.38403C7.27162 8.96084 7.17969 8.86807 7.17969 8.75464V6.45352C7.17969 6.34014 7.27167 6.24731 7.38403 6.24731ZM7.38403 10.1373H9.66442C9.77683 10.1373 9.86877 10.23 9.86877 10.3435V10.6255H7.86791C7.75551 10.6255 7.66357 10.7183 7.66357 10.8317V12.8508H7.38403C7.27162 12.8508 7.17969 12.758 7.17969 12.6446V10.3435C7.17969 10.23 7.27167 10.1373 7.38403 10.1373Z" fill="#035997"/>
<path fill-rule="evenodd" clip-rule="evenodd" d="M7.17969 3.81045H8.25057C8.5709 3.81045 8.83224 3.54678 8.83224 3.22349V2.35742H7.38403C7.27162 2.35742 7.17969 2.4502 7.17969 2.56362V3.81045Z" fill="#035997"/>
<path fill-rule="evenodd" clip-rule="evenodd" d="M7.17969 3.81045H7.66357V3.0519C7.66357 2.93848 7.75551 2.8457 7.86791 2.8457H8.83224V2.35742H7.38403C7.27162 2.35742 7.17969 2.4502 7.17969 2.56362V3.81045Z" fill="#035997"/>
<path fill-rule="evenodd" clip-rule="evenodd" d="M8.16024 0.630176L5.19733 3.62007C5.14004 3.67788 5.09571 3.74146 5.06445 3.8105H7.76723C8.08756 3.8105 8.3489 3.54683 8.3489 3.22354V0.496094C8.28053 0.527637 8.21753 0.572363 8.16024 0.630176Z" fill="#EFF4F7"/>
<path fill-rule="evenodd" clip-rule="evenodd" d="M16.8184 13.9582L19.5667 3.60816C19.6398 3.33286 19.9219 3.16851 20.1947 3.24224L21.3841 3.56382C21.6568 3.63755 21.8198 3.92227 21.7467 4.19756L18.9983 14.5476L17.6972 16.1028C17.6207 16.1942 17.506 16.2305 17.3915 16.1996C17.2769 16.1686 17.1955 16.0793 17.1746 15.9615L16.8184 13.9582Z" fill="#E77237"/>
<path fill-rule="evenodd" clip-rule="evenodd" d="M20.7235 3.38477L21.3835 3.56323C21.6563 3.63701 21.8192 3.92168 21.7461 4.19697L18.9978 14.547L17.6967 16.1022C17.6202 16.1937 17.5055 16.2299 17.3909 16.199C17.2764 16.168 17.195 16.0787 17.174 15.9609L17.1445 15.7948L18.3378 14.3686L21.0861 4.01855C21.1592 3.74321 20.9963 3.45854 20.7235 3.38477Z" fill="#E77237"/>
<path fill-rule="evenodd" clip-rule="evenodd" d="M21.7478 4.19753L21.4475 5.32844C20.7208 5.13196 19.9942 4.93547 19.2676 4.73904L19.5679 3.60813C19.6409 3.33283 19.9231 3.16848 20.1959 3.24226L21.3852 3.56384C21.658 3.63752 21.8209 3.92224 21.7478 4.19753Z" fill="#E77237"/>
<path fill-rule="evenodd" clip-rule="evenodd" d="M21.7472 4.19697L21.4469 5.32788L20.7869 5.14941L21.0872 4.01851C21.1603 3.74321 20.9974 3.45854 20.7246 3.38477L21.3846 3.56323C21.6574 3.63696 21.8203 3.92168 21.7472 4.19697Z" fill="#E77237"/>
<path fill-rule="evenodd" clip-rule="evenodd" d="M16.8184 13.959C17.5447 14.1554 18.271 14.3518 18.9973 14.5481L17.6969 16.1025C17.6204 16.1939 17.5057 16.2302 17.3912 16.1993C17.2766 16.1683 17.1953 16.079 17.1743 15.9612L16.8184 13.959Z" fill="#E77237"/>
<path fill-rule="evenodd" clip-rule="evenodd" d="M18.3371 14.3691L18.9971 14.5476L17.6967 16.102C17.6202 16.1934 17.5055 16.2297 17.3909 16.1987C17.2764 16.1677 17.195 16.0784 17.174 15.9606L17.1445 15.7946L18.3371 14.3691Z" fill="#E77237"/>
<path fill-rule="evenodd" clip-rule="evenodd" d="M11.2474 2.89687C11.2474 2.6811 11.4207 2.5063 11.6345 2.5063H15.4667C15.6806 2.5063 15.854 2.6811 15.854 2.89687C15.854 3.11265 15.6806 3.28745 15.4667 3.28745H11.6345C11.4207 3.28745 11.2474 3.11265 11.2474 2.89687ZM11.2474 4.53081C11.2474 4.31548 11.4207 4.13999 11.6345 4.13999H17.3932C17.607 4.13999 17.7802 4.31548 17.7802 4.53081C17.7802 4.74658 17.607 4.92139 17.3932 4.92139H11.6345C11.4207 4.92139 11.2474 4.74663 11.2474 4.53081ZM11.2474 8.42095C11.2474 8.20518 11.4207 8.03037 11.6345 8.03037H17.3932C17.607 8.03037 17.7802 8.20518 17.7802 8.42095C17.7802 8.63672 17.607 8.81152 17.3932 8.81152H11.6345C11.4207 8.81152 11.2474 8.63677 11.2474 8.42095ZM11.2474 6.78726C11.2474 6.57124 11.4207 6.39644 11.6345 6.39644H15.4667C15.6806 6.39644 15.854 6.57124 15.854 6.78726C15.854 7.00234 15.6806 7.17783 15.4667 7.17783H11.6345C11.4207 7.17783 11.2474 7.00234 11.2474 6.78726ZM11.2474 10.6767C11.2474 10.4609 11.4207 10.2861 11.6345 10.2861H15.4667C15.6806 10.2861 15.854 10.4609 15.854 10.6767C15.854 10.8925 15.6806 11.0673 15.4667 11.0673H11.6345C11.4207 11.0673 11.2474 10.8925 11.2474 10.6767ZM9.48217 8.56997H7.5674V6.63779H9.48217V8.56997ZM9.66518 5.8564H7.38459C7.05845 5.8564 6.79328 6.12398 6.79328 6.45308V8.75439C6.79328 9.0835 7.05845 9.35107 7.38459 9.35107H9.66518C9.99131 9.35107 10.2563 9.0835 10.2563 8.75439V6.45308C10.2563 6.12402 9.99131 5.8564 9.66518 5.8564ZM9.48217 12.4599H7.5674V10.5277H9.48217V12.4599ZM9.66518 9.74653H7.38459C7.05845 9.74653 6.79328 10.0141 6.79328 10.3432V12.6445C6.79328 12.9736 7.05845 13.2412 7.38459 13.2412H9.66518C9.99131 13.2412 10.2563 12.9736 10.2563 12.6445V10.3432C10.2563 10.0142 9.99131 9.74653 9.66518 9.74653ZM9.48217 16.3502H7.5674V14.4174H9.48217V16.3502ZM9.66518 13.6362H7.38459C7.05845 13.6362 6.79328 13.9043 6.79328 14.2329V16.5342C6.79328 16.8633 7.05845 17.1314 7.38459 17.1314H9.66518C9.99131 17.1314 10.2563 16.8633 10.2563 16.5342V14.2329C10.2563 13.9043 9.99131 13.6362 9.66518 13.6362ZM11.2474 14.5668C11.2474 14.3511 11.4207 14.1763 11.6345 14.1763H15.4667C15.6806 14.1763 15.854 14.3511 15.854 14.5668C15.854 14.7822 15.6806 14.9577 15.4667 14.9577H11.6345C11.4207 14.9577 11.2474 14.7821 11.2474 14.5668ZM22.1778 21.46H2.39571C1.97329 21.46 1.62983 21.1132 1.62983 20.6872V20.2931H22.9437V20.6872C22.9437 21.1132 22.6002 21.46 22.1778 21.46ZM17.34 24.1699H7.23304L8.34698 22.2412H16.2265L17.34 24.1699ZM2.39571 5.90659C1.97329 5.90659 1.62983 6.25342 1.62983 6.67969V19.5117H22.9437V6.67969C22.9437 6.25342 22.6003 5.90659 22.1778 5.90659H21.6958L19.952 12.4737V18.0084C19.952 18.582 19.4894 19.0488 18.9209 19.0488H5.65287C5.08416 19.0488 4.62152 18.582 4.62152 18.0084V5.90659H2.39571ZM7.96201 1.38223V3.22319C7.96201 3.33145 7.87437 3.41938 7.76734 3.41938H5.9432L7.96201 1.38223ZM8.73612 3.22324C8.73612 3.76211 8.30159 4.20059 7.76734 4.20059H7.5674V4.68008H9.48217V2.74746H8.73612V3.22324ZM19.1776 1.08931C19.1776 0.946289 19.0626 0.82998 18.9209 0.82998H8.73612V1.96626H9.66522C9.99136 1.96626 10.2563 2.23433 10.2563 2.56338V4.8647C10.2563 5.19331 9.99136 5.46138 9.66522 5.46138H7.38464C7.0585 5.46138 6.79333 5.19331 6.79333 4.8647V4.20059H5.39593V18.0084C5.39593 18.1514 5.51095 18.2677 5.65292 18.2677H18.9209C19.0627 18.2677 19.1777 18.1514 19.1777 18.0084V14.942L17.9946 16.356C17.8618 16.5151 17.6726 16.6022 17.4736 16.6022C17.4343 16.6022 17.3944 16.5987 17.354 16.5914H17.3535H11.6345C11.4207 16.5914 11.2474 16.4166 11.2474 16.2008C11.2474 15.985 11.4207 15.8102 11.6345 15.8102H16.7559L16.4394 14.0282C16.4291 13.9717 16.4316 13.9135 16.4463 13.8584L16.7534 12.7017H11.6345C11.4207 12.7017 11.2474 12.5265 11.2474 12.3111C11.2474 12.0954 11.4207 11.9203 11.6345 11.9203H16.9611L19.1776 3.57119L19.1776 1.08931ZM20.0013 3.63384C20.0184 3.62349 20.0531 3.60898 20.0967 3.6207L21.2855 3.94194C21.3291 3.95371 21.3519 3.98433 21.3615 4.00137C21.3717 4.01865 21.3861 4.05366 21.3747 4.09766L21.1748 4.85098L19.7425 4.46387L19.9422 3.7106C19.954 3.66655 19.9844 3.64351 20.0013 3.63384ZM17.5244 15.7075L17.309 14.4971L18.3107 14.7677L17.5244 15.7075ZM18.7262 14.0712L20.9739 5.60537L19.5421 5.21826L17.2941 13.6841L18.7262 14.0712ZM22.1778 5.12544H21.903L22.1226 4.29985C22.1847 4.06587 22.1527 3.82129 22.0322 3.61079C21.9117 3.40029 21.7182 3.24995 21.4863 3.1875L20.297 2.86577C20.1826 2.83491 20.066 2.82754 19.9519 2.8418V1.08931C19.9519 0.515625 19.4893 0.0488281 18.9208 0.0488281H8.61559C8.33648 0.0488281 8.08428 0.154297 7.88642 0.353516L4.92347 3.3439C4.72604 3.54287 4.62152 3.79736 4.62152 4.07949V5.12549H2.39571C1.5465 5.12549 0.855469 5.8228 0.855469 6.67974V20.6872C0.855469 21.5441 1.5465 22.2412 2.39571 22.2412H7.45078L6.38247 24.0918C6.27887 24.271 6.27747 24.4845 6.37903 24.6621C6.48012 24.8403 6.66931 24.9513 6.87177 24.9513H17.7019C17.9041 24.9513 18.0929 24.8403 18.1944 24.6621C18.2962 24.4845 18.2946 24.271 18.191 24.0918L17.1227 22.2412H22.1778C23.027 22.2412 23.718 21.5441 23.718 20.6872V6.67969C23.718 5.82275 23.027 5.12544 22.1778 5.12544Z" fill="black"/>
</g>
<defs>
<clipPath id="clip0_28022_5928">
<rect width="27.1605" height="25" fill="white" transform="translate(0.949219)"/>
</clipPath>
</defs>
</svg>
